<svg width="500" height="500" xmlns="http://www.w3.org/2000/svg">
 <g>
  <title>Layer 1</title>
  <g id="Layer_1" display="none">
   <g display="inline" id="svg_2">
    <g id="svg_3">
     <path fill="#800000018000000180000001" d="m135,216.832001c3.225006,0 3.225006,-5 0,-5s-3.225006,5 0,5l0,0z" id="svg_4"/>
    </g>
   </g>
   <g display="inline" id="svg_5">
    <g id="svg_6">
     <path fill="#800000018000000180000001" d="m135,216.832001c3.225006,0 3.225006,-5 0,-5s-3.225006,5 0,5l0,0z" id="svg_7"/>
    </g>
   </g>
   <g display="inline" id="svg_8">
    <g id="svg_9">
     <path fill="#800000018000000180000001" d="m135,216.832001c3.225006,0 3.225006,-5 0,-5s-3.225006,5 0,5l0,0z" id="svg_10"/>
    </g>
   </g>
   <path fill="#800000018000000180000001" d="m105.153,105.338997" id="svg_11"/>
  </g>
  <g id="Layer_6" display="none">
   <g display="inline" id="svg_52">
    <polyline fill="none" stroke="#800000018000000180000001" stroke-width="5" stroke-miterlimit="10" points="52.835,328.641     52.206,327.51 2.485,238.779 2.485,87.29 57.995,11.68 58.775,10.62   " id="svg_53"/>
    <polyline fill="none" stroke="#800000018000000180000001" stroke-width="5" stroke-miterlimit="10" points="50.985,327.51     52.206,327.51 237.155,327.51 287.505,238.779 287.505,87.29 232.285,11.68 57.995,11.68 57.695,11.68   " id="svg_54"/>
   </g>
  </g>
  <g id="Layer_5"/>
  <g id="Layer_3">
   <path transform="rotate(-9.5 270.16 316.115)" stroke="#000000" stroke-miterlimit="10" d="m270.160339,316.11499" id="svg_12"/>
   <circle transform="rotate(-9.5 250.262 249.215)" fill="#bfbfbf" stroke-width="48" cx="250.261746" cy="249.214725" r="112.302002" id="svg_13" fill-opacity="0" stroke="#2179ff"/>
   <g transform="rotate(-9.5 270.008 225.545)" id="svg_14">
    <circle fill="none" cx="250.883996" cy="243.631053" r="107.853996" id="svg_15"/>
    <circle fill="none" cx="250.883996" cy="243.631053" r="107.853996" id="svg_24"/>
    <g id="svg_143">
     <text transform="matrix(0.9675 0.2529 -0.3162 1.2094 155.835 83.2344)" font-family="'LilyUPC'" font-size="65" id="svg_25" y="33.755434" x="120.214424" fill="black">S</text>
     <text transform="matrix(0.8721 0.4893 -0.6116 1.0902 177.117 88.3013)" font-family="'LilyUPC'" font-size="65" id="svg_26" y="8.343492" x="126.977269" fill="black">P</text>
     <text transform="matrix(0.7648 0.6442 -0.8053 0.956 198.371 100.883)" font-family="'LilyUPC'" font-size="65" id="svg_27" y="-10.861258" x="126.683348" fill="black">I</text>
     <text transform="matrix(0.6304 0.7762 -0.9703 0.788 192.254 114.719)" font-family="'LilyUPC'" font-size="65" id="svg_28" y="-42.534313" x="123.777935">R</text>
     <text transform="matrix(0.473 0.8811 -1.1013 0.5913 221.105 125.663)" font-family="'LilyUPC'" font-size="65" id="svg_29" y="-47.505821" x="112.718472">I</text>
     <text transform="matrix(0.3084 0.9512 -1.1891 0.3855 226.139 133.476)" font-family="'LilyUPC'" font-size="65" id="svg_30" y="-62.812357" x="100.336645">T</text>
     <text transform="matrix(0.0757 0.9971 -1.2464 0.0946 231.692 155.193)" font-family="'LilyUPC'" font-size="65" id="svg_31" y="-81.096457" x="77.790026">E</text>
     <text transform="matrix(-0.1727 0.985 -1.2312 -0.2159 235.189 174.453)" font-family="'LilyUPC'" font-size="65" id="svg_32" y="-93.078847" x="51.908963">D</text>
    </g>
   </g>
   <g id="svg_33">
    <circle transform="rotate(-9.5 245.552 253.383)" fill="none" cx="245.551711" cy="253.382594" r="107.852997" id="svg_34"/>
    <circle transform="rotate(-9.5 245.552 253.383)" fill="none" cx="245.551711" cy="253.382594" r="107.852997" id="svg_43"/>
    <g transform="rotate(-9.5 181.923 312.923)" id="svg_141">
     <text transform="matrix(-0.2599 0.9656 -1.207 -0.3249 26.019 126.519)" font-family="'LilyUPC'" font-size="65" id="svg_44" fill="black" y="-103.794149" x="60.659896">R</text>
     <text transform="matrix(0.0162 0.9999 -1.2498 0.0203 17.9883 159.749)" font-family="'LilyUPC'" font-size="65" id="svg_45" fill="black" y="-86.406043" x="94.059363">O</text>
     <text transform="matrix(0.2808 0.9598 -1.1997 0.3511 19.5273 195.182)" font-family="'LilyUPC'" font-size="65" id="svg_46" y="-63.352811" x="119.336406" fill="black">B</text>
     <text transform="matrix(0.5319 0.8468 -1.0585 0.6649 30.0796 227.848)" font-family="'LilyUPC'" font-size="65" id="svg_47" y="-34.91548" x="136.409091" fill="black">O</text>
     <text transform="matrix(0.7325 0.6808 -0.851 0.9156 54.0859 264.717)" font-family="'LilyUPC'" font-size="65" id="svg_48" y="-7.736453" x="134.749245" fill="black">T</text>
     <text transform="matrix(0.8431 0.5378 -0.6723 1.0538 72.3359 276.456)" font-family="'LilyUPC'" font-size="65" id="svg_49" y="15.134169" x="141.962666">I</text>
     <text transform="matrix(0.9264 0.3764 -0.4706 1.158 86.1445 285.375)" font-family="'LilyUPC'" font-size="65" id="svg_50" y="35.428175" x="136.211712">C</text>
     <text transform="matrix(0.9905 0.1376 -0.172 1.2381 119.367 303.916)" font-family="'LilyUPC'" font-size="65" id="svg_51" y="55.489378" x="115.933073">S</text>
    </g>
   </g>
  </g>
  <g id="Layer_2">
   <g transform="rotate(-15 251.203 247.082)" id="Layer_4">
    <line fill="none" stroke="#800000018000000180000001" stroke-miterlimit="10" x1="246.651344" y1="108.95295" x2="246.047344" y2="194.28295" id="svg_55"/>
    <line fill="none" stroke="#800000018000000180000001" stroke-miterlimit="10" x1="259.047344" y1="108.73795" x2="258.442344" y2="194.06795" id="svg_56"/>
    <line fill="none" stroke="#800000018000000180000001" stroke-miterlimit="10" x1="243.963344" y1="300.09595" x2="243.358344" y2="385.42595" id="svg_57"/>
    <line fill="none" stroke="#800000018000000180000001" stroke-miterlimit="10" x1="256.358344" y1="299.87995" x2="255.754344" y2="385.21095" id="svg_58"/>
   </g>
   <g id="XMLID_3_">
    <g id="XMLID_4_">
     <g id="svg_59">
      <path transform="rotate(-15 339.462 289.702)" fill="#E6E7E8" d="m366.374573,285.07196c2.75,18.819977 -13.380005,27.72998 -13.380005,27.72998s-25.549988,-12.221008 -40.76001,-20.109985c-4.22998,-15.440002 11.050018,-26.089996 11.050018,-26.089996s27.220001,11.869995 43.089996,18.470001zm-28.23999,13.119995c5.169983,-0.029999 9.349976,-4.240021 9.328979,-9.410004c-0.028992,-5.170013 -4.238983,-9.350006 -9.408997,-9.320007c-5.181,0.019989 -9.350983,4.230011 -9.329987,9.399994c0.029999,5.180023 4.23999,9.350006 9.410004,9.330017z" id="svg_60"/>
      <path transform="rotate(-15 358.334 353.729)" fill="#D1D3D4" d="m379.609131,352.289215c0.059998,12.980011 -10.410004,23.550018 -23.390991,23.601013c-7.880005,0.039978 -14.880005,-3.811005 -19.158997,-9.761017c2.82901,0.490021 5.850006,1.029999 9.028992,1.700012c11.190002,2.350983 17.561005,-0.809998 20.471008,-3.51001c0.028992,-0.020996 0.049988,-0.040009 0.069,-0.061005c2.221008,-1.889984 7.221008,-7.929993 3.181,-21.929993c-1.110016,-3.829987 -2.011017,-7.438995 -2.830017,-10.76001c7.480011,3.891022 12.590027,11.701019 12.630005,20.721008z" id="svg_61"/>
      <path transform="rotate(-15 333.766 341.343)" fill="#6D6E71" d="m362.586273,370.195953c-0.02002,0.020996 -0.040009,0.040009 -0.069,0.061005c-2.910004,2.700012 -9.279999,5.859985 -20.471008,3.51001c-3.179993,-0.670013 -6.200012,-1.210022 -9.028992,-1.700012c-13.141022,-2.26001 -22.341003,-3.209991 -25.900024,-8.519989c-4.329987,-6.470001 -6.879974,-10.670013 -6.879974,-10.670013l41.569977,-44.73999l0.039001,-0.040009c0,0 4.381012,2.23999 11.150024,6.079987c5.289978,3.01001 7.009979,11.380005 9.939972,23.330017c0.819,3.320007 1.720001,6.929993 2.830017,10.76001c4.040009,13.998993 -0.959991,20.039001 -3.179993,21.928986zm-13.440002,-6.850006c2.759979,-0.019989 4.988983,-2.259979 4.970001,-5.029999c-0.01001,-2.759979 -2.26001,-4.988983 -5.020996,-4.970001c-2.76001,0.01001 -4.989014,2.26001 -4.979004,5.020996c0.019989,2.759003 2.269989,4.989014 5.029999,4.979004zm-2.230011,-39.309998c2.76001,-0.020996 4.98999,-2.260986 4.980011,-5.029999c-0.011017,-2.76001 -2.261017,-4.98999 -5.020996,-4.970001c-2.76001,0.01001 -4.990021,2.26001 -4.979004,5.02002c0.009979,2.759979 2.259979,4.98999 5.019989,4.97998zm-34.730011,34.470001c2.76001,-0.01001 4.989014,-2.26001 4.979004,-5.020996c-0.009979,-2.76001 -2.259979,-4.989014 -5.019989,-4.979004c-2.760986,0.02002 -4.98999,2.27002 -4.980011,5.029999c0.011017,2.76001 2.261017,4.990021 5.020996,4.970001z" id="svg_62"/>
      <path transform="rotate(-15 337.915 289.211)" fill="#6D6E71" d="m347.284668,289.165649c0.020996,5.169983 -4.158997,9.380005 -9.32901,9.410004c-5.17099,0.019989 -9.380981,-4.149994 -9.409973,-9.330017c-0.021027,-5.169983 4.148987,-9.380005 9.329987,-9.399994c5.169006,-0.029999 9.378998,4.149994 9.408997,9.320007zm-9.350006,4.709991c2.580017,-0.01001 4.660004,-2.109009 4.649994,-4.688995c-0.020996,-2.579987 -2.109985,-4.660004 -4.689972,-4.640991c-2.580017,0.009979 -4.660004,2.109985 -4.650024,4.681c0.01001,2.578979 2.110016,4.658997 4.690002,4.648987z" id="svg_63"/>
      <path transform="rotate(-15 337.914 289.21)" fill="#414042" d="m342.584412,289.185791c0.01001,2.580017 -2.069977,4.679993 -4.649994,4.688995s-4.679993,-2.069977 -4.690002,-4.648987c-0.009979,-2.570007 2.070007,-4.67099 4.650024,-4.681c2.579987,-0.019012 4.669983,2.061005 4.689972,4.640991z" id="svg_64"/>
      <path transform="rotate(-15 352.994 353.794)" fill="#414042" d="m357.993774,353.763611c0.019989,2.770996 -2.210022,5.010986 -4.970001,5.029999c-2.761017,0.009979 -5.011017,-2.220001 -5.029999,-4.979004c-0.01001,-2.761017 2.220001,-5.011017 4.979004,-5.020996c2.760986,-0.019989 5.010986,2.209991 5.020996,4.970001z" id="svg_65"/>
      <path transform="rotate(-15 340.675 316.398)" fill="#414042" d="m345.675232,316.367645c0.009979,2.77002 -2.221008,5.01001 -4.980011,5.029999c-2.76001,0.01001 -5.01001,-2.221008 -5.019989,-4.97998c-0.011017,-2.76001 2.220001,-5.01001 4.979004,-5.02002c2.760986,-0.019989 5.010986,2.209991 5.020996,4.970001z" id="svg_66"/>
      <path transform="rotate(-15 307.092 328.049)" fill="#000000" d="m279.00647,302.746674l2.790009,-3.48999c0.309998,-0.320007 0.660004,-0.610016 1.039978,-0.860016c3.160004,-2.118988 8.47998,-1.988983 14.620972,-0.630005c6.050018,1.339996 12.899017,3.880005 19.25,6.610016c9.420013,4.059998 17.75,8.539978 20.75,10.209991l-41.569977,44.73999c0,0 -14.22998,-23.949982 -18.160004,-41.319977c-1.490997,-6.580017 -1.510986,-12.220001 1.279022,-15.26001zm17.969971,29.5c8.040009,-0.029999 14.540009,-6.580017 14.5,-14.619995c-0.040009,-8.050018 -6.589996,-14.540009 -14.630005,-14.5s-14.529968,6.589996 -14.499969,14.630005c0.040009,8.039978 6.589996,14.529999 14.629974,14.48999z" id="svg_67"/>
      <path transform="rotate(-15 284.234 286.342)" fill="#dcdcdc" d="m275.663025,263.811615l29.470947,45.059998c-6.350983,-2.730011 -13.199982,-5.270996 -19.25,-6.610016l-22.549957,-34.5c4.498993,-0.309998 8.699005,-1.720001 12.32901,-3.949982z" id="svg_68"/>
      <path transform="rotate(-15 316.05 358.683)" fill="#414042" d="m321.050415,358.661865c0.01001,2.760986 -2.220001,5.010986 -4.979004,5.020996c-2.760986,0.019989 -5.010986,-2.209991 -5.020996,-4.970001c-0.01001,-2.760986 2.220001,-5.010986 4.980011,-5.029999c2.759979,-0.011017 5.009979,2.218994 5.019989,4.979004z" id="svg_69"/>
      <path transform="rotate(-15 294.577 320.675)" fill="#414042" d="m309.141479,320.614624c0.040009,8.039978 -6.460022,14.589996 -14.5,14.619995c-8.039978,0.040009 -14.589966,-6.450012 -14.629974,-14.48999c-0.029999,-8.040009 6.459991,-14.590027 14.499969,-14.630005s14.589996,6.449982 14.630005,14.5zm-14.52002,9.619995c5.129974,-0.020996 9.27002,-4.200012 9.25,-9.330017c-0.029968,-5.129974 -4.200012,-9.270996 -9.330017,-9.25c-5.140991,0.029999 -9.279968,4.210022 -9.249969,9.340027c0.02002,5.129974 4.199982,9.269989 9.329987,9.23999z" id="svg_70"/>
      <path transform="rotate(-15 294.651 320.934)" fill="#6D6E71" d="m303.941193,320.894257c0.019989,5.130005 -4.120026,9.310028 -9.25,9.330017c-5.130005,0.029999 -9.310974,-4.110016 -9.330994,-9.23999c-0.029999,-5.130005 4.109985,-9.310028 9.249969,-9.340027c5.131012,-0.019989 9.301025,4.120026 9.331024,9.25z" id="svg_71"/>
      <path transform="rotate(-15 247.867 201.488)" fill="#dcdcdc" d="m232.822021,164.752747l35.220001,54.680008l-3.880005,18.789978c-1.799988,-5.509979 -5.309998,-10.239975 -9.899979,-13.569977l0.209961,-0.290009l-26.779968,-40.839996l2.809998,-3.479996c2.779999,-3 2.809998,-8.570007 1.389999,-15.080002l0.929993,-0.210007z" id="svg_72"/>
      <path transform="rotate(-15 250.315 247.968)" fill="#58595B" d="m252.245377,275.232819c-0.639999,0.050018 -1.279999,0.070007 -1.929993,0.070007c-6.360001,0 -12.210007,-2.170013 -16.850006,-5.820007c-4.309998,-3.369995 -7.589996,-8.029999 -9.25,-13.380005c-0.799988,-2.569977 -1.229996,-5.299988 -1.229996,-8.129974c0,-9.140015 4.479996,-17.229996 11.369995,-22.190002c0.100006,-0.080002 0.210007,-0.149994 0.320007,-0.220001c3.800003,-2.669998 8.309998,-4.389999 13.190002,-4.819992c0.800003,-0.070007 1.619995,-0.110001 2.449997,-0.110001c6.000015,0 11.550003,1.929993 16.060013,5.220001c4.589966,3.330002 8.099976,8.059998 9.899963,13.569977c0.890015,2.690002 1.369995,5.559998 1.369995,8.550018c0,9.869995 -5.22998,18.519989 -13.069946,23.309998c-3.630005,2.22998 -7.830017,3.639984 -12.330032,3.949982zm6.720016,-26.899994c0,-4.919983 -3.990005,-8.910004 -8.910004,-8.910004c-4.919998,0 -8.900009,3.990021 -8.900009,8.910004c0,4.920013 3.980011,8.910004 8.900009,8.910004c4.919998,0 8.910004,-3.98999 8.910004,-8.910004z" id="svg_73"/>
      <path transform="rotate(-15 264.859 287.506)" fill="#000000" d="m262.974152,272.815826l22.549988,34.5c-6.141022,-1.358978 -11.459991,-1.488983 -14.620972,0.630005l-26.70903,-40.880005c4.639999,3.649994 10.490005,5.820007 16.850021,5.820007c0.649994,0 1.289978,-0.019989 1.929993,-0.070007z" id="svg_74" fill-opacity="0"/>
      <path transform="rotate(-15 235.101 207.859)" fill-opacity="0" fill="#000000" d="m228.906036,187.29393l26.779968,40.839996l-0.209961,0.290009c-4.51001,-3.290009 -10.059998,-5.220001 -16.060013,-5.220001c-0.830002,0 -1.649994,0.039993 -2.449997,0.110001l-22.449997,-34.330002c6.309998,1.270004 11.619995,1.110001 14.389999,-1.690002z" id="svg_75" stroke="#000000" stroke-opacity="0"/>
      <path transform="rotate(-15 252.273 294.102)" fill="#dcdcdc" d="m245.472549,270.548248l26.710007,40.878998c-0.379974,0.25 -0.72998,0.540009 -1.039978,0.860016l-2.790009,3.48999c-2.790009,3.040009 -2.77002,8.679993 -1.280029,15.26001l-34.709991,-55.170013l3.860001,-18.699982c1.660004,5.350983 4.940002,10.010986 9.25,13.380981z" id="svg_76"/>
      <path transform="rotate(-15 250.164 248.386)" fill="#6D6E71" d="m250.158554,239.476379c4.919998,0 8.909988,3.990021 8.909988,8.910004c0,4.920013 -3.98999,8.910004 -8.909988,8.910004c-4.919998,0 -8.900009,-3.98999 -8.900009,-8.910004c0,-4.919983 3.980011,-8.910004 8.900009,-8.910004zm4.860001,10.660004l-0.470001,-5.039978l-4.600006,-2.110016l-4.130005,2.929993l0.470001,5.040009l4.600006,2.109985l4.130005,-2.929993z" id="svg_77"/>
      <polygon transform="rotate(-15 250.317 247.973)" fill="#414042" points="254.447 245.043 254.917 250.083 250.787 253.013 246.187 250.903 245.717 245.863 249.847 242.933" id="svg_78"/>
      <path transform="rotate(-15 215.125 210.194)" fill="#dcdcdc" d="m214.439651,194.233749l22.449997,34.330002c-4.880005,0.429993 -9.389999,2.149994 -13.190002,4.819992l-30.339996,-46.37999c6.949997,3.049988 14.550003,5.909988 21.080002,7.229996z" id="svg_79"/>
      <path transform="rotate(-15 191.946 168.207)" fill="#000000" d="m219.982971,193.632202l-2.809998,3.479996c-2.770004,2.800003 -8.080002,2.960007 -14.389999,1.690002c-6.529999,-1.320007 -14.130005,-4.180008 -21.080002,-7.229996c-9.160004,-4.029999 -17.180008,-8.400009 -20.110001,-10.040009l41.769989,-44.550003c0,0 14.210007,24.170013 18.01001,41.570007c1.419998,6.509995 1.389999,12.080002 -1.389999,15.080002zm-3.270004,-15.020004c0,-8.039993 -6.520004,-14.559998 -14.559998,-14.559998c-8.050003,0 -14.570007,6.520004 -14.570007,14.559998s6.520004,14.559998 14.570007,14.559998c8.039993,0 14.559998,-6.519989 14.559998,-14.559998z" id="svg_80"/>
      <path transform="rotate(-15 204.493 175.617)" fill="#414042" d="m204.498306,161.057175c8.039993,0 14.559998,6.520004 14.559998,14.559998s-6.520004,14.559998 -14.559998,14.559998c-8.050003,0 -14.570007,-6.519989 -14.570007,-14.559998s6.520004,-14.559998 14.570007,-14.559998zm9.289993,14.289993c0,-5.12999 -4.159988,-9.289993 -9.289993,-9.289993c-5.139999,0 -9.290009,4.160004 -9.290009,9.289993s4.150009,9.290009 9.290009,9.290009c5.130005,0 9.289993,-4.160004 9.289993,-9.290009z" id="svg_81"/>
      <path transform="rotate(-15 204.428 175.355)" fill="#6D6E71" d="m204.428268,166.065079c5.130005,0 9.289993,4.160004 9.289993,9.289993s-4.159988,9.290009 -9.289993,9.290009c-5.139999,0 -9.290009,-4.160004 -9.290009,-9.290009s4.150009,-9.289993 9.290009,-9.289993z" id="svg_82"/>
      <path transform="rotate(-15 165.448 154.707)" fill="#6D6E71" d="m157.195969,187.930328l-0.040009,0.040009c0,0 -4.369995,-2.26001 -11.119995,-6.130005c-5.279999,-3.029999 -6.960007,-11.410004 -9.839996,-23.369995c-0.800003,-3.330002 -1.690002,-6.940002 -2.779999,-10.779999c-3.980011,-14.020004 1.049988,-20.030006 3.279999,-21.910004c0.019989,-0.020004 0.039993,-0.040001 0.069992,-0.060005c2.919998,-2.689995 9.300003,-5.82 20.480011,-3.419998c3.179993,0.68 6.199997,1.239998 9.029999,1.739998c13.12999,2.32 22.319992,3.310005 25.860001,8.639999c4.299988,6.490005 6.829987,10.699997 6.829987,10.699997l-41.769989,44.550003zm34.839996,-45.240005c0,-2.759995 -2.240005,-5 -5,-5s-5,2.240005 -5,5c0,2.76001 2.240005,5.000015 5,5.000015s5,-2.240005 5,-5.000015zm-34.880005,34.320007c0,-2.759995 -2.23999,-5 -5,-5c-2.769989,0 -5,2.240005 -5,5c0,2.759995 2.230011,5 5,5c2.76001,0 5,-2.240005 5,-5zm-2.049988,-39.320007c0,-2.759995 -2.240005,-5 -5,-5c-2.76001,0 -5,2.240005 -5,5c0,2.76001 2.23999,5 5,5c2.759995,0 5,-2.23999 5,-5z" id="svg_83"/>
      <circle transform="rotate(-15 183.19 137.512)" fill="#414042" cx="183.190191" cy="137.51243" r="5" id="svg_84"/>
      <path transform="rotate(-15 159.968 206.266)" fill="#E6E7E8" d="m186.693527,203.385529c4.169998,15.460007 -11.169998,26.050003 -11.169998,26.050003s-27.160004,-12 -43,-18.669998c-2.660004,-18.830002 13.5,-27.669998 13.5,-27.669998s25.5,12.339996 40.669998,20.289993zm-16.509995,3.76001c0,-5.180008 -4.190002,-9.37001 -9.360001,-9.37001c-5.180008,0 -9.37001,4.190002 -9.37001,9.37001c0,5.169998 4.190002,9.360001 9.37001,9.360001c5.169998,0 9.360001,-4.190002 9.360001,-9.360001z" id="svg_85"/>
      <path transform="rotate(-15 140.908 142.258)" fill="#D1D3D4" d="m162.217606,129.967651c-2.830002,-0.5 -5.850006,-1.059998 -9.029999,-1.740005c-11.180008,-2.399994 -17.560013,0.730011 -20.480011,3.420013c-0.029999,0.020004 -0.050003,0.039993 -0.069992,0.059998c-2.230011,1.87999 -7.260002,7.889999 -3.279999,21.910019c1.089996,3.839996 1.979996,7.449982 2.779999,10.779999c-7.459999,-3.930023 -12.540001,-11.76001 -12.540001,-20.780014c0,-12.979996 10.519997,-23.500008 23.499992,-23.500008c7.880005,0 14.860001,3.880005 19.12001,9.849998z" id="svg_86"/>
      <path transform="rotate(-15 158.381 179.691)" fill="#414042" d="m158.381363,174.690613c2.76001,0 5,2.240005 5,5c0,2.759995 -2.23999,5 -5,5c-2.769989,0 -5,-2.240005 -5,-5c0,-2.759995 2.230011,-5 5,-5z" id="svg_87"/>
      <path transform="rotate(-15 161.016 206.891)" fill="#6D6E71" d="m161.021011,197.525528c5.169998,0 9.360001,4.190002 9.360001,9.37001c0,5.169998 -4.190002,9.360001 -9.360001,9.360001c-5.180008,0 -9.37001,-4.190002 -9.37001,-9.360001c0,-5.180008 4.190002,-9.37001 9.37001,-9.37001zm4.659988,9.37001c0,-2.580002 -2.089996,-4.669998 -4.659988,-4.669998c-2.580002,0 -4.669998,2.089996 -4.669998,4.669998c0,2.569992 2.089996,4.659988 4.669998,4.659988c2.569992,0 4.659988,-2.089996 4.659988,-4.659988z" id="svg_88"/>
      <circle transform="rotate(-15 146.224 142.241)" fill="#414042" cx="146.224455" cy="142.240985" r="5" id="svg_89"/>
      <path transform="rotate(-15 161.016 206.891)" fill="#414042" d="m161.021011,202.22554c2.569992,0 4.659988,2.089996 4.659988,4.669998c0,2.569992 -2.089996,4.659988 -4.659988,4.659988c-2.580002,0 -4.669998,-2.089996 -4.669998,-4.659988c0,-2.580002 2.089996,-4.669998 4.669998,-4.669998z" id="svg_90"/>
     </g>
     <g id="svg_91">
      <path transform="rotate(-15 224.716 178.036)" fill="#000000" stroke="#000000" stroke-miterlimit="10" d="m223.473312,185.665497c0.059998,-0.059998 0.110001,-0.119995 0.169998,-0.179993c2.779999,-3 2.809998,-8.570007 1.389999,-15.080002c-3.800003,-17.399994 -18.01001,-41.570007 -18.01001,-41.570007" id="svg_101"/>
      <path transform="rotate(-15 303.063 306.311)" fill="#000000" stroke="#000000" stroke-miterlimit="10" d="m332.882965,315.548737c0,0 -0.420013,-0.23999 -1.189026,-0.660004c-3,-1.670013 -11.329987,-6.149994 -20.75,-10.209991c-6.350983,-2.730011 -13.199982,-5.270996 -19.25,-6.610016c-6.140991,-1.358978 -11.459961,-1.488983 -14.620972,0.630005c-0.379974,0.25 -0.72998,0.540009 -1.039978,0.860016l-2.790009,3.48999" id="svg_108"/>
      <path transform="rotate(-15 274.347 318.434)" fill="#000000" stroke="#000000" stroke-miterlimit="10" d="m275.572235,310.71405c-0.059998,0.059998 -0.109985,0.118988 -0.169983,0.179993c-2.790009,3.040009 -2.77002,8.679993 -1.279999,15.26001c3.929993,17.369995 18.159973,41.319977 18.159973,41.319977" id="svg_114"/>
      <path transform="rotate(-15 367.587 351.251)" fill="#dcdcdc" stroke="#000000" stroke-miterlimit="10" d="m366.652832,329.089844c7.479004,3.890015 12.590027,11.700012 12.630005,20.720001c0.059998,12.980011 -10.410004,23.550018 -23.390991,23.601013c-7.880005,0.039978 -14.880005,-3.811005 -19.158997,-9.761017" id="svg_111"/>
      <path transform="rotate(-15 333.766 341.341)" fill="#000000" stroke="#000000" stroke-miterlimit="10" d="m361.625732,370.885773c0,0 0.360016,-0.190002 0.891022,-0.630005c0.028992,-0.020996 0.049988,-0.040009 0.069,-0.061005c2.220978,-1.889984 7.220978,-7.929993 3.181,-21.929993c-1.110016,-3.829987 -2.011017,-7.438995 -2.830017,-10.76001c-2.931,-11.949982 -4.649994,-20.319977 -9.940002,-23.329987c-6.769989,-3.839996 -11.149994,-6.079987 -11.149994,-6.079987l-0.039001,0.039978l-41.570007,44.740021c0,0 2.550018,4.199982 6.880005,10.669983c3.559998,5.309998 12.76001,6.26001 25.899994,8.519989c2.82901,0.490021 5.850006,1.030029 9.029022,1.700012c11.190002,2.351013 17.561005,-0.809998 20.470978,-3.51001" id="svg_113"/>
      <path transform="rotate(-15 250.326 248.007)" fill="#000000" stroke="#000000" stroke-miterlimit="10" d="m266.385803,225.851471c4.669983,3.453003 8.099976,8.059998 9.899963,13.569977c0.890015,2.690002 1.369995,5.559998 1.369995,8.550018c0,9.869995 -5.22998,18.519989 -13.069946,23.309998c-3.630005,2.22998 -7.830017,3.639984 -12.330032,3.949982c-0.639999,0.050018 -1.279999,0.070007 -1.929993,0.070007c-6.360001,0 -12.210007,-2.170013 -16.850006,-5.820007c-4.309998,-3.369995 -7.589996,-8.029999 -9.25,-13.380005c-0.799988,-2.569977 -1.229996,-5.299988 -1.229996,-8.129974c0,-9.140015 4.479996,-17.229996 11.369995,-22.190002c0.100006,-0.080002 0.210007,-0.149994 0.320007,-0.220001c3.800003,-2.669998 6.020004,-4.522995 13.190002,-4.819992c7.169998,-0.296997 13.840027,1.656998 18.51001,5.110001z" id="svg_122"/>
      <path transform="rotate(-15 195.948 189.917)" fill="#000000" stroke="#000000" stroke-miterlimit="10" d="m166.158218,180.566055c0,0 0.419998,0.240005 1.190002,0.669998c2.929993,1.639999 10.949997,6.01001 20.110001,10.040009c6.949997,3.049988 14.550003,5.909988 21.080002,7.229996c6.309998,1.270004 11.619995,1.110001 14.389999,-1.690002l2.809998,-3.479996" id="svg_95"/>
      <path transform="rotate(-15 131.673 144.732)" fill="#dcdcdc" stroke="#000000" stroke-miterlimit="10" d="m132.463364,166.871979c-7.460014,-3.930008 -12.540016,-11.76001 -12.540016,-20.780014c0,-12.979996 10.520012,-23.5 23.500008,-23.5c7.880005,0 14.860001,3.880005 19.12001,9.850006" id="svg_98"/>
      <path transform="rotate(-15 165.448 154.707)" fill="#000000" stroke="#000000" stroke-miterlimit="10" d="m137.65596,125.090332c0,0 -0.360001,0.190002 -0.889999,0.629997c-0.029999,0.020004 -0.050003,0.040001 -0.069992,0.060005c-2.230011,1.879997 -7.26001,7.889999 -3.279999,21.910004c1.089996,3.839996 1.979996,7.449997 2.779999,10.779999c2.87999,11.959991 4.559998,20.339996 9.839996,23.369995c6.75,3.869995 11.119995,6.130005 11.119995,6.130005l0.040009,-0.040009l41.769989,-44.550003c0,0 -2.529999,-4.209991 -6.829987,-10.699997c-3.540009,-5.329994 -12.730011,-6.32 -25.860001,-8.639999c-2.830002,-0.5 -5.850006,-1.059998 -9.029999,-1.739998c-11.180008,-2.400002 -17.560013,0.730003 -20.480011,3.419998" id="svg_100"/>
      <path transform="rotate(-15 158.381 179.691)" fill="#dcdcdc" stroke="#000000" stroke-miterlimit="10" d="m163.381363,179.690613c0,2.759995 -2.23999,5 -5,5c-2.769989,0 -5,-2.240005 -5,-5c0,-2.759995 2.230011,-5 5,-5c2.76001,0 5,2.240005 5,5z" id="svg_92"/>
      <path transform="rotate(-15 204.493 175.617)" fill="#dcdcdc" stroke="#000000" stroke-miterlimit="10" d="m219.058304,175.617172c0,8.040009 -6.520004,14.559998 -14.559998,14.559998c-8.050003,0 -14.570007,-6.519989 -14.570007,-14.559998s6.520004,-14.559998 14.570007,-14.559998c8.039993,0 14.559998,6.520004 14.559998,14.559998z" id="svg_93"/>
      <path transform="rotate(-15 204.428 175.355)" fill="#000000" stroke="#000000" stroke-miterlimit="10" d="m213.718262,175.355072c0,5.130005 -4.159988,9.290009 -9.289993,9.290009c-5.139999,0 -9.290009,-4.160004 -9.290009,-9.290009s4.150009,-9.289993 9.290009,-9.289993c5.130005,0 9.289993,4.160004 9.289993,9.289993z" id="svg_94"/>
      <circle transform="rotate(-15 183.19 137.512)" fill="#dcdcdc" stroke="#000000" stroke-miterlimit="10" cx="183.190191" cy="137.51243" r="5" id="svg_96"/>
      <circle transform="rotate(-15 146.224 142.241)" fill="#dcdcdc" stroke="#000000" stroke-miterlimit="10" cx="146.224455" cy="142.240985" r="5" id="svg_97"/>
      <path transform="rotate(-15 130.189 134.208)" fill="none" stroke="#000000" stroke-miterlimit="10" d="m130.188858,134.207581c-0.910004,0.849991 -1.480011,1.659988 -1.730011,2.220001" id="svg_99"/>
      <path transform="rotate(-15 159.478 206.397)" fill="#dcdcdc" stroke="#000000" stroke-miterlimit="10" d="m146.040802,183.226791c0,0 -16.160004,8.839996 -13.5,27.669998c15.839996,6.669998 43,18.669998 43,18.669998s15.339996,-10.589996 11.169998,-26.050003c-15.169998,-7.949997 -40.669998,-20.289993 -40.669998,-20.289993z" id="svg_102"/>
      <path transform="rotate(-15 161.016 206.891)" fill="#000000" stroke="#000000" stroke-miterlimit="10" d="m170.381012,206.895538c0,5.169998 -4.190002,9.360001 -9.360001,9.360001c-5.180008,0 -9.37001,-4.190002 -9.37001,-9.360001c0,-5.180008 4.190002,-9.37001 9.37001,-9.37001c5.169998,0 9.360001,4.190002 9.360001,9.37001z" id="svg_103"/>
      <path transform="rotate(-15 161.016 206.891)" fill="#dcdcdc" stroke="#000000" stroke-miterlimit="10" d="m165.681,206.895538c0,2.569992 -2.089996,4.659988 -4.659988,4.659988c-2.580002,0 -4.669998,-2.089996 -4.669998,-4.659988c0,-2.580002 2.089996,-4.669998 4.669998,-4.669998c2.569992,0 4.659988,2.089996 4.659988,4.669998z" id="svg_104"/>
      <path transform="rotate(-15 340.675 316.398)" fill="#dcdcdc" stroke="#000000" stroke-miterlimit="10" d="m335.675232,316.417664c-0.011017,-2.76001 2.220001,-5.01001 4.979004,-5.02002c2.759979,-0.020996 5.009979,2.209991 5.020996,4.970001c0.009979,2.77002 -2.221008,5.01001 -4.980011,5.029999c-2.76001,0.01001 -5.01001,-2.220001 -5.019989,-4.97998z" id="svg_105"/>
      <path transform="rotate(-15 294.576 320.675)" fill="#dcdcdc" stroke="#000000" stroke-miterlimit="10" d="m280.011505,320.744659c-0.029999,-8.040009 6.459991,-14.590027 14.499969,-14.630005s14.589996,6.449982 14.630005,14.5c0.040009,8.039978 -6.459991,14.589996 -14.5,14.619995c-8.039978,0.040009 -14.589966,-6.450012 -14.629974,-14.48999z" id="svg_106"/>
      <path transform="rotate(-15 294.651 320.934)" fill="#000000" stroke="#000000" stroke-miterlimit="10" d="m285.361176,320.984161c-0.029999,-5.130005 4.109985,-9.310028 9.249969,-9.340027c5.130005,-0.020996 9.300018,4.120026 9.330017,9.25c0.019989,5.130005 -4.120026,9.310028 -9.25,9.330017c-5.130005,0.029999 -9.309967,-4.110016 -9.329987,-9.23999z" id="svg_107"/>
      <path transform="rotate(-15 316.05 358.682)" fill="#dcdcdc" stroke="#000000" stroke-miterlimit="10" d="m311.05014,358.711884c-0.01001,-2.760986 2.220001,-5.010986 4.980011,-5.029999c2.759979,-0.01001 5.009979,2.220001 5.019989,4.979004c0.01001,2.760986 -2.220001,5.010986 -4.979004,5.020996c-2.760986,0.02002 -5.010986,-2.209991 -5.020996,-4.970001z" id="svg_109"/>
      <path transform="rotate(-15 352.994 353.793)" fill="#dcdcdc" stroke="#000000" stroke-miterlimit="10" d="m347.99353,353.81366c-0.01001,-2.761017 2.220001,-5.011017 4.979004,-5.020996c2.760986,-0.02002 5.010986,2.209991 5.020996,4.969971c0.019989,2.771027 -2.210022,5.011017 -4.970001,5.030029c-2.76001,0.010986 -5.01001,-2.219025 -5.029999,-4.979004z" id="svg_110"/>
      <path transform="rotate(-15 369.072 361.754)" fill="none" stroke="#000000" stroke-miterlimit="10" d="m369.071808,361.75354c0.899994,-0.859009 1.470978,-1.669983 1.720978,-2.229004" id="svg_112"/>
      <path transform="rotate(-15 339.462 289.702)" fill="#dcdcdc" stroke="#000000" stroke-miterlimit="10" d="m352.994568,312.801941c0,0 16.130005,-8.910004 13.380005,-27.72998c-15.869995,-6.600006 -43.089996,-18.470001 -43.089996,-18.470001s-15.279999,10.649994 -11.050018,26.089996c15.210022,7.889984 40.76001,20.109985 40.76001,20.109985z" id="svg_115"/>
      <path transform="rotate(-15 337.914 289.211)" fill="#000000" stroke="#000000" stroke-miterlimit="10" d="m328.544708,289.24588c-0.020996,-5.169983 4.148987,-9.380005 9.329987,-9.399994c5.170013,-0.029999 9.380005,4.149994 9.408997,9.320007c0.020996,5.169983 -4.158997,9.380005 -9.328979,9.410004c-5.170013,0.019989 -9.380005,-4.149994 -9.410004,-9.330017z" id="svg_116"/>
      <path transform="rotate(-15 337.914 289.21)" fill="#dcdcdc" stroke="#000000" stroke-miterlimit="10" d="m333.244415,289.2258c-0.009979,-2.570007 2.070007,-4.67099 4.650024,-4.681c2.579987,-0.019989 4.669983,2.061005 4.689972,4.640991c0.01001,2.580017 -2.069977,4.679993 -4.649994,4.688995s-4.679993,-2.069 -4.690002,-4.648987z" id="svg_117"/>
      <path transform="rotate(-15 250.164 248.386)" fill="#dcdcdc" stroke="#000000" stroke-miterlimit="10" d="m259.068542,248.386383c0,4.920013 -3.98999,8.910004 -8.909988,8.910004c-4.919998,0 -8.900009,-3.98999 -8.900009,-8.910004c0,-4.919983 3.980011,-8.910004 8.900009,-8.910004c4.919998,0 8.909988,3.990021 8.909988,8.910004z" id="svg_118"/>
      <polygon transform="rotate(-15 250.317 247.973)" fill="#000000" stroke="#000000" stroke-miterlimit="10" points="254.917 250.083 250.787 253.013 246.187 250.903 245.717 245.863 249.847 242.933 254.447 245.043" id="svg_119"/>
      <polyline transform="rotate(-15 250.409 201.065)" fill="none" stroke="#800000018000000180000001" stroke-miterlimit="10" points="232.799 164.33 268.019 219.01 264.139 237.8" id="svg_120"/>
      <polyline transform="rotate(-15 249.793 294.721)" fill="none" stroke="#800000018000000180000001" stroke-miterlimit="10" points="267.148 331.701 232.438 276.531 236.298 257.831 236.318 257.741" id="svg_121"/>
      <path transform="rotate(-15 242.072 221.934)" fill="none" stroke="#800000018000000180000001" stroke-miterlimit="10" d="m240.846542,221.989426c0.800003,-0.070007 1.619995,-0.110001 2.449997,-0.110001c6.000015,0 11.550003,1.929993 16.060028,5.220001" id="svg_123"/>
      <polyline transform="rotate(-15 290.317 284.862)" fill="none" stroke="#800000018000000180000001" stroke-miterlimit="10" points="275.487 262.187 304.957 307.247 305.147 307.537" id="svg_124"/>
      <polyline transform="rotate(-15 257.84 289.438)" fill="none" stroke="#800000018000000180000001" stroke-miterlimit="10" points="244.455 268.948 271.165 309.828 271.225 309.928" id="svg_125"/>
      <polyline transform="rotate(-15 274.592 287.548)" fill="none" stroke="#800000018000000180000001" stroke-miterlimit="10" points="263.307 270.288 263.317 270.298 285.867 304.798 285.877 304.808" id="svg_126"/>
      <polyline transform="rotate(-15 208.747 211.892)" fill="none" stroke="#800000018000000180000001" stroke-miterlimit="10" points="193.572 188.692 193.582 188.712 223.922 235.092" id="svg_127"/>
      <line transform="rotate(-15 225.617 208.63)" fill="none" stroke="#800000018000000180000001" stroke-miterlimit="10" x1="214.392376" y1="191.464731" x2="236.842376" y2="225.794731" id="svg_128"/>
      <line transform="rotate(-15 242.013 205.857)" fill="none" stroke="#800000018000000180000001" stroke-miterlimit="10" x1="228.62333" y1="185.436653" x2="255.40333" y2="226.276653" id="svg_129"/>
     </g>
    </g>
   </g>
   <path transform="rotate(-15 405.697 63.8122)" fill="none" stroke="#800000018000000180000001" stroke-miterlimit="10" d="m405.696899,63.812187" id="svg_130"/>
   <path transform="rotate(-15 228.322 281.643)" fill="#E6E7E8" stroke="#000000" stroke-miterlimit="10" d="m228.321655,281.64267" id="svg_131"/>
   <path transform="rotate(-15 295.896 385.909)" stroke="#000000" stroke-miterlimit="10" d="m295.896271,385.908844" id="svg_132"/>
  </g>
 </g>
</svg>