<?xml version="1.0" encoding="UTF-8" standalone="no"?>
<svg
   xmlns:dc="http://purl.org/dc/elements/1.1/"
   xmlns:cc="http://creativecommons.org/ns#"
   xmlns:rdf="http://www.w3.org/1999/02/22-rdf-syntax-ns#"
   xmlns:svg="http://www.w3.org/2000/svg"
   xmlns="http://www.w3.org/2000/svg"
   xmlns:sodipodi="http://sodipodi.sourceforge.net/DTD/sodipodi-0.dtd"
   xmlns:inkscape="http://www.inkscape.org/namespaces/inkscape"
   width="39.060001"
   height="26.43157"
   id="svg2"
   version="1.1"
   inkscape:version="0.48.4 r9939"
   sodipodi:docname="SpiritedRoboticsLogo2_1_blue.svg"
   inkscape:export-filename="/home/andrewb/Documents/spiritedrobotics/graphic/logo/SpiritedRoboticsLogo2_0_card_logo.png"
   inkscape:export-xdpi="1233.9156"
   inkscape:export-ydpi="1233.9156">
  <metadata
     id="metadata137">
    <rdf:RDF>
      <cc:Work
         rdf:about="">
        <dc:format>image/svg+xml</dc:format>
        <dc:type
           rdf:resource="http://purl.org/dc/dcmitype/StillImage" />
        <dc:title></dc:title>
      </cc:Work>
    </rdf:RDF>
  </metadata>
  <defs
     id="defs135" />
  <sodipodi:namedview
     pagecolor="#ffffff"
     bordercolor="#666666"
     borderopacity="1"
     objecttolerance="10"
     gridtolerance="10"
     guidetolerance="10"
     inkscape:pageopacity="0"
     inkscape:pageshadow="2"
     inkscape:window-width="504"
     inkscape:window-height="578"
     id="namedview133"
     showgrid="false"
     fit-margin-top="0"
     fit-margin-left="0"
     fit-margin-right="0"
     fit-margin-bottom="0"
     inkscape:zoom="0.944"
     inkscape:cx="-86.796352"
     inkscape:cy="4.3086681"
     inkscape:window-x="20"
     inkscape:window-y="17"
     inkscape:window-maximized="0"
     inkscape:current-layer="svg2" />
  <g
     style="display:none"
     display="none"
     id="Layer_1"
     transform="translate(-342.93968,-239.89988)">
    <g
       style="display:inline"
       id="svg_2"
       display="inline">
      <g
         id="svg_3">
        <path
           inkscape:connector-curvature="0"
           id="svg_4"
           d="m 135,216.832 c 3.22501,0 3.22501,-5 0,-5 -3.22501,0 -3.22501,5 0,5 l 0,0 z"
           fill="#800000018000000180000001" />
      </g>
    </g>
    <g
       style="display:inline"
       id="svg_5"
       display="inline">
      <g
         id="svg_6">
        <path
           inkscape:connector-curvature="0"
           id="svg_7"
           d="m 135,216.832 c 3.22501,0 3.22501,-5 0,-5 -3.22501,0 -3.22501,5 0,5 l 0,0 z"
           fill="#800000018000000180000001" />
      </g>
    </g>
    <g
       style="display:inline"
       id="svg_8"
       display="inline">
      <g
         id="svg_9">
        <path
           inkscape:connector-curvature="0"
           id="svg_10"
           d="m 135,216.832 c 3.22501,0 3.22501,-5 0,-5 -3.22501,0 -3.22501,5 0,5 l 0,0 z"
           fill="#800000018000000180000001" />
      </g>
    </g>
    <path
       inkscape:connector-curvature="0"
       id="svg_11"
       d="M 105.153,105.339"
       fill="#800000018000000180000001" />
  </g>
  <g
     style="display:none"
     display="none"
     id="Layer_6"
     transform="translate(-342.93968,-239.89988)">
    <g
       style="display:inline"
       id="svg_52"
       display="inline">
      <polyline
         style="fill:none;stroke-width:5;stroke-miterlimit:10"
         id="svg_53"
         points="52.835,328.641     52.206,327.51 2.485,238.779 2.485,87.29 57.995,11.68 58.775,10.62   "
         stroke-miterlimit="10"
         stroke="#800000018000000180000001" />
      <polyline
         style="fill:none;stroke-width:5;stroke-miterlimit:10"
         id="svg_54"
         points="50.985,327.51     52.206,327.51 237.155,327.51 287.505,238.779 287.505,87.29 232.285,11.68 57.995,11.68 57.695,11.68   "
         stroke-miterlimit="10"
         stroke="#800000018000000180000001" />
    </g>
  </g>
  <g
     id="Layer_5"
     transform="translate(-342.93968,-239.89988)" />
  <g
     id="Layer_3"
     transform="translate(-342.93968,-239.89988)"
     inkscape:export-xdpi="495.23465"
     inkscape:export-ydpi="495.23465"
     inkscape:export-filename="/home/andrewb/Documents/spiritedrobotics/graphic/logo/SpiritedRoboticsLogo2_0_card_logo.png">
    <path
       style="stroke:#000000;stroke-miterlimit:10"
       inkscape:connector-curvature="0"
       id="svg_12"
       d="M 270.16034,316.11499"
       stroke-miterlimit="10"
       transform="matrix(0.9862856,-0.16504761,0.16504761,0.9862856,-48.468942,48.924588)" />
    <circle
       d="m 362.56375,249.21472 c 0,62.02268 -50.27932,112.302 -112.302,112.302 -62.02268,0 -112.302,-50.27932 -112.302,-112.302 0,-62.02268 50.27932,-112.302 112.302,-112.302 62.02268,0 112.302,50.27932 112.302,112.302 z"
       style="fill:#bfbfbf;fill-opacity:0;stroke:#2179ff;stroke-width:48"
       sodipodi:ry="112.302"
       sodipodi:rx="112.302"
       sodipodi:cy="249.21472"
       sodipodi:cx="250.26175"
       id="svg_13"
       r="112.302"
       cy="249.21472"
       cx="250.26175"
       transform="matrix(0.9862856,-0.16504761,0.16504761,0.9862856,-37.700146,44.722978)" />
    <g
       id="svg_14"
       transform="matrix(0.9862856,-0.16504761,0.16504761,0.9862856,-33.522665,47.657388)">
      <circle
         style="fill:none"
         sodipodi:ry="107.854"
         sodipodi:rx="107.854"
         sodipodi:cy="243.63106"
         sodipodi:cx="250.884"
         d="m 358.738,243.63106 c 0,59.56612 -48.28788,107.85399 -107.854,107.85399 -59.56611,0 -107.85399,-48.28787 -107.85399,-107.85399 0,-59.56612 48.28788,-107.854 107.85399,-107.854 59.56612,0 107.854,48.28788 107.854,107.854 z"
         id="svg_15"
         r="107.854"
         cy="243.63106"
         cx="250.884" />
      <circle
         style="fill:none"
         sodipodi:ry="107.854"
         sodipodi:rx="107.854"
         sodipodi:cy="243.63106"
         sodipodi:cx="250.884"
         d="m 358.738,243.63106 c 0,59.56612 -48.28788,107.85399 -107.854,107.85399 -59.56611,0 -107.85399,-48.28787 -107.85399,-107.85399 0,-59.56612 48.28788,-107.854 107.85399,-107.854 59.56612,0 107.854,48.28788 107.854,107.854 z"
         id="svg_24"
         r="107.854"
         cy="243.63106"
         cx="250.884" />
      <g
         id="svg_143">
        <text
           style="font-size:42.63986969px;fill:#000000;font-family:LilyUPC"
           x="120.21442"
           y="33.755432"
           id="svg_25"
           font-size="65"
           transform="matrix(0.9675,0.2529,-0.3162,1.2094,155.835,83.2344)">S</text>
        <text
           style="font-size:42.63949203px;fill:#000000;font-family:LilyUPC"
           x="126.97727"
           y="8.3434916"
           id="svg_26"
           font-size="65"
           transform="matrix(0.8721,0.4893,-0.6116,1.0902,177.117,88.3013)">P</text>
        <text
           style="font-size:42.63863373px;fill:#000000;font-family:LilyUPC"
           x="126.68335"
           y="-10.861258"
           id="svg_27"
           font-size="65"
           transform="matrix(0.7648,0.6442,-0.8053,0.956,198.371,100.883)">I</text>
        <text
           style="font-size:42.63844681px;font-family:LilyUPC"
           x="123.77793"
           y="-42.534313"
           id="svg_28"
           font-size="65"
           transform="matrix(0.6304,0.7762,-0.9703,0.788,192.254,114.719)">R</text>
        <text
           style="font-size:42.63967514px;font-family:LilyUPC"
           x="112.71848"
           y="-47.505821"
           id="svg_29"
           font-size="65"
           transform="matrix(0.473,0.8811,-1.1013,0.5913,221.105,125.663)">I</text>
        <text
           style="font-size:42.63896561px;font-family:LilyUPC"
           x="100.33665"
           y="-62.812359"
           id="svg_30"
           font-size="65"
           transform="matrix(0.3084,0.9512,-1.1891,0.3855,226.139,133.476)">T</text>
        <text
           style="font-size:47.67066193px;font-family:LilyUPC"
           x="277.41843"
           y="-287.22162"
           id="svg_31"
           font-size="65"
           transform="matrix(0.06770958,0.89185238,-1.1148378,0.08461462,0,0)">E</text>
        <text
           style="font-size:47.67272949px;font-family:LilyUPC"
           x="206.96562"
           y="-338.22964"
           id="svg_32"
           font-size="65"
           transform="matrix(-0.15446647,0.88100444,-1.1012109,-0.19310545,0,0)">D</text>
      </g>
    </g>
    <g
       id="svg_33">
      <circle
         d="m 353.40471,253.3826 c 0,59.56556 -48.28743,107.853 -107.853,107.853 -59.56556,0 -107.85299,-48.28744 -107.85299,-107.853 0,-59.56557 48.28743,-107.853 107.85299,-107.853 59.56557,0 107.853,48.28743 107.853,107.853 z"
         style="fill:none"
         sodipodi:ry="107.853"
         sodipodi:rx="107.853"
         sodipodi:cy="253.3826"
         sodipodi:cx="245.55171"
         id="svg_34"
         r="107.853"
         cy="253.3826"
         cx="245.55171"
         transform="matrix(0.9862856,-0.16504761,0.16504761,0.9862856,-38.45266,44.002765)" />
      <circle
         d="m 353.40471,253.3826 c 0,59.56556 -48.28743,107.853 -107.853,107.853 -59.56556,0 -107.85299,-48.28744 -107.85299,-107.853 0,-59.56557 48.28743,-107.853 107.85299,-107.853 59.56557,0 107.853,48.28743 107.853,107.853 z"
         style="fill:none"
         sodipodi:ry="107.853"
         sodipodi:rx="107.853"
         sodipodi:cy="253.3826"
         sodipodi:cx="245.55171"
         id="svg_43"
         r="107.853"
         cy="253.3826"
         cx="245.55171"
         transform="matrix(0.9862856,-0.16504761,0.16504761,0.9862856,-38.45266,44.002765)" />
      <g
         id="svg_141"
         transform="matrix(0.9862856,-0.16504761,0.16504761,0.9862856,-49.152227,34.317506)">
        <text
           style="font-size:42.63861465px;font-style:normal;font-variant:normal;font-weight:normal;font-stretch:normal;fill:#000000;font-family:DejaVu Sans;-inkscape-font-specification:DejaVu Sans"
           x="60.659897"
           y="-103.79415"
           id="svg_44"
           font-size="65"
           transform="matrix(-0.2599,0.9656,-1.207,-0.3249,26.019,126.519)">R</text>
        <text
           style="font-size:42.63935852px;fill:#000000;font-family:LilyUPC"
           x="94.059364"
           y="-86.406044"
           id="svg_45"
           font-size="65"
           transform="matrix(0.0162,0.9999,-1.2498,0.0203,17.9883,159.749)">O</text>
        <text
           style="font-size:42.63986588px;fill:#000000;font-family:LilyUPC"
           x="119.3364"
           y="-63.35281"
           id="svg_46"
           font-size="65"
           transform="matrix(0.2808,0.9598,-1.1997,0.3511,19.5273,195.182)">B</text>
        <text
           style="font-size:42.63930511px;fill:#000000;font-family:LilyUPC"
           x="136.40909"
           y="-34.915482"
           id="svg_47"
           font-size="65"
           transform="matrix(0.5319,0.8468,-1.0585,0.6649,30.0796,227.848)">O</text>
        <text
           style="font-size:47.67330933px;fill:#000000;font-family:LilyUPC"
           x="399.53485"
           y="132.35638"
           id="svg_48"
           font-size="65"
           transform="matrix(0.65515801,0.60891682,-0.76114603,0.81892515,0,0)">T</text>
        <text
           style="font-size:47.67284393px;font-family:LilyUPC"
           x="399.00333"
           y="192.48976"
           id="svg_49"
           font-size="65"
           transform="matrix(0.75408501,0.48101876,-0.60131818,0.94253919,0,0)">I</text>
        <text
           style="font-size:47.66944885px;font-family:LilyUPC"
           x="364.79361"
           y="250.17638"
           id="svg_50"
           font-size="65"
           transform="matrix(0.82862884,0.33667519,-0.42093344,1.035786,0,0)">C</text>
        <text
           style="font-size:47.67236328px;font-family:LilyUPC"
           x="315.13922"
           y="320.32147"
           id="svg_51"
           font-size="65"
           transform="matrix(0.88592826,0.12307292,-0.15384115,1.107388,0,0)">S</text>
      </g>
    </g>
  </g>
  <g
     id="Layer_2"
     transform="translate(-342.93968,-239.89988)">
    <g
       id="Layer_4"
       transform="matrix(0.96592583,-0.25881905,0.25881905,0.96592583,-55.389993,73.435236)">
      <line
         style="fill:none;stroke-miterlimit:10"
         id="svg_55"
         y2="194.28294"
         x2="246.04735"
         y1="108.95295"
         x1="246.65134"
         stroke-miterlimit="10"
         stroke="#800000018000000180000001" />
      <line
         style="fill:none;stroke-miterlimit:10"
         id="svg_56"
         y2="194.06795"
         x2="258.44235"
         y1="108.73795"
         x1="259.04733"
         stroke-miterlimit="10"
         stroke="#800000018000000180000001" />
      <line
         style="fill:none;stroke-miterlimit:10"
         id="svg_57"
         y2="385.42596"
         x2="243.35834"
         y1="300.09595"
         x1="243.96335"
         stroke-miterlimit="10"
         stroke="#800000018000000180000001" />
      <line
         style="fill:none;stroke-miterlimit:10"
         id="svg_58"
         y2="385.21094"
         x2="255.75435"
         y1="299.87994"
         x1="256.35834"
         stroke-miterlimit="10"
         stroke="#800000018000000180000001" />
    </g>
    <g
       id="XMLID_3_">
      <g
         id="XMLID_4_">
        <g
           id="svg_59">
          <path
             style="fill:#e6e7e8"
             inkscape:connector-curvature="0"
             id="svg_60"
             d="m 366.37457,285.07196 c 2.75,18.81998 -13.38,27.72998 -13.38,27.72998 0,0 -25.54999,-12.22101 -40.76001,-20.10999 -4.22998,-15.44 11.05002,-26.08999 11.05002,-26.08999 0,0 27.22,11.86999 43.08999,18.47 z m -28.23999,13.11999 c 5.16999,-0.03 9.34998,-4.24002 9.32898,-9.41 -0.029,-5.17001 -4.23898,-9.35001 -9.40899,-9.32001 -5.181,0.02 -9.35099,4.23001 -9.32999,9.4 0.03,5.18002 4.23999,9.35 9.41,9.33001 z"
             transform="matrix(0.96592583,-0.25881905,0.25881905,0.96592583,-63.413508,97.730587)" />
          <path
             style="fill:#d1d3d4"
             inkscape:connector-curvature="0"
             id="svg_61"
             d="m 379.60913,352.28922 c 0.06,12.98001 -10.41,23.55001 -23.39099,23.60101 -7.88,0.04 -14.88,-3.81101 -19.159,-9.76102 2.82901,0.49002 5.85001,1.03 9.029,1.70001 11.19,2.35099 17.561,-0.80999 20.471,-3.51001 0.029,-0.021 0.05,-0.04 0.069,-0.061 2.22101,-1.88999 7.22101,-7.93 3.181,-21.93 -1.11001,-3.82998 -2.01101,-7.43899 -2.83001,-10.76001 7.48001,3.89103 12.59002,11.70102 12.63,20.72101 z"
             transform="matrix(0.96592583,-0.25881905,0.25881905,0.96592583,-79.341867,104.79669)" />
          <path
             style="fill:#6d6e71"
             inkscape:connector-curvature="0"
             id="svg_62"
             d="m 362.58627,370.19595 c -0.02,0.021 -0.04,0.04 -0.069,0.061 -2.91,2.70001 -9.28,5.85998 -20.47101,3.51001 -3.17999,-0.67001 -6.20001,-1.21002 -9.02899,-1.70001 -13.14102,-2.26001 -22.341,-3.21 -25.90002,-8.51999 -4.32999,-6.47 -6.87998,-10.67002 -6.87998,-10.67002 l 41.56998,-44.73999 0.039,-0.04 c 0,0 4.38101,2.23999 11.15003,6.07998 5.28997,3.01001 7.00998,11.38001 9.93997,23.33002 0.819,3.32001 1.72,6.92999 2.83002,10.76001 4.04,13.99899 -0.96,20.039 -3.18,21.92899 z m -13.44,-6.85 c 2.75998,-0.02 4.98898,-2.25998 4.97,-5.03 -0.01,-2.75998 -2.26001,-4.98899 -5.02099,-4.97 -2.76001,0.01 -4.98902,2.26001 -4.97901,5.02099 0.02,2.75901 2.26999,4.98902 5.03,4.97901 z m -2.23001,-39.31 c 2.76001,-0.021 4.98999,-2.26099 4.98001,-5.03 -0.011,-2.76001 -2.26102,-4.98999 -5.021,-4.97 -2.76001,0.01 -4.99002,2.26001 -4.979,5.02002 0.01,2.75998 2.25998,4.98999 5.01999,4.97998 z m -34.73001,34.47 c 2.76001,-0.01 4.98901,-2.26001 4.979,-5.021 -0.01,-2.76001 -2.25998,-4.98901 -5.01999,-4.979 -2.76098,0.02 -4.98999,2.27002 -4.98001,5.03 0.011,2.76001 2.26102,4.99002 5.021,4.97 z"
             transform="matrix(0.96592583,-0.25881905,0.25881905,0.96592583,-76.973269,98.015978)" />
          <path
             style="fill:#6d6e71"
             inkscape:connector-curvature="0"
             id="svg_63"
             d="m 347.28467,289.16565 c 0.021,5.16998 -4.159,9.38 -9.32901,9.41 -5.17099,0.02 -9.38098,-4.14999 -9.40997,-9.33001 -0.021,-5.16999 4.14898,-9.38001 9.32998,-9.4 5.16901,-0.03 9.379,4.15 9.409,9.32001 z m -9.35001,4.70999 c 2.58002,-0.01 4.66001,-2.10901 4.65,-4.689 -0.021,-2.57998 -2.10999,-4.66 -4.68998,-4.64099 -2.58001,0.01 -4.66,2.10999 -4.65002,4.681 0.01,2.57898 2.11002,4.659 4.69,4.64899 z"
             transform="matrix(0.96592583,-0.25881905,0.25881905,0.96592583,-63.33914,97.313463)" />
          <path
             style="fill:#414042"
             inkscape:connector-curvature="0"
             id="svg_64"
             d="m 342.58441,289.18579 c 0.01,2.58002 -2.06998,4.67999 -4.64999,4.689 -2.58002,0.009 -4.68,-2.06998 -4.69,-4.64899 -0.01,-2.57001 2.07,-4.67099 4.65002,-4.681 2.57999,-0.019 4.66998,2.061 4.68997,4.64099 z"
             transform="matrix(0.96592583,-0.25881905,0.25881905,0.96592583,-63.338916,97.313171)" />
          <path
             style="fill:#414042"
             inkscape:connector-curvature="0"
             id="svg_65"
             d="m 357.99377,353.76361 c 0.02,2.771 -2.21002,5.01099 -4.97,5.03 -2.76101,0.01 -5.01101,-2.22 -5.03,-4.979 -0.01,-2.76102 2.22,-5.01102 4.97901,-5.021 2.76098,-0.02 5.01098,2.20999 5.02099,4.97 z"
             transform="matrix(0.96592583,-0.25881905,0.25881905,0.96592583,-79.540646,103.41681)" />
          <path
             style="fill:#414042"
             inkscape:connector-curvature="0"
             id="svg_66"
             d="m 345.67523,316.36764 c 0.01,2.77002 -2.22101,5.01001 -4.98001,5.03 -2.76001,0.01 -5.01001,-2.221 -5.01999,-4.97998 -0.011,-2.76001 2.22,-5.01001 4.97901,-5.02002 2.76098,-0.02 5.01098,2.20999 5.02099,4.97 z"
             transform="matrix(0.96592583,-0.25881905,0.25881905,0.96592583,-70.281609,98.954179)" />
          <path
             style="fill:#000000"
             inkscape:connector-curvature="0"
             id="svg_67"
             d="m 279.00647,302.74667 2.79001,-3.48999 c 0.31,-0.32 0.66,-0.61001 1.03998,-0.86001 3.16,-2.11899 8.47998,-1.98898 14.62097,-0.63001 6.05002,1.34 12.89902,3.88001 19.25,6.61002 9.42001,4.06 17.75,8.53998 20.75,10.20999 l -41.56998,44.73999 c 0,0 -14.22998,-23.94998 -18.16,-41.31998 -1.491,-6.58001 -1.51099,-12.22 1.27902,-15.26001 z m 17.96997,29.5 c 8.04001,-0.03 14.54001,-6.58001 14.5,-14.61999 -0.04,-8.05002 -6.59,-14.54001 -14.63,-14.5 -8.04001,0.04 -14.52997,6.58999 -14.49997,14.63 0.04,8.03998 6.58999,14.53 14.62997,14.48999 z"
             transform="matrix(0.96592583,-0.25881905,0.25881905,0.96592583,-74.441423,90.659257)" />
          <path
             style="fill:#dcdcdc"
             inkscape:connector-curvature="0"
             id="svg_68"
             d="m 275.66302,263.81162 29.47095,45.05999 c -6.35098,-2.73001 -13.19998,-5.27099 -19.25,-6.61001 l -22.54995,-34.5 c 4.49899,-0.31 8.699,-1.72 12.329,-3.94998 z"
             transform="matrix(0.96592583,-0.25881905,0.25881905,0.96592583,-64.425724,83.32204)" />
          <path
             style="fill:#414042"
             inkscape:connector-curvature="0"
             id="svg_69"
             d="m 321.05041,358.66186 c 0.01,2.76099 -2.22,5.01099 -4.979,5.021 -2.76099,0.02 -5.01099,-2.20999 -5.021,-4.97 -0.01,-2.76099 2.22001,-5.01099 4.98002,-5.03 2.75997,-0.011 5.00997,2.21899 5.01998,4.979 z"
             transform="matrix(0.96592583,-0.25881905,0.25881905,0.96592583,-82.064849,94.021586)" />
          <path
             style="fill:#414042"
             inkscape:connector-curvature="0"
             id="svg_70"
             d="m 309.14148,320.61462 c 0.04,8.03998 -6.46002,14.59 -14.5,14.62 -8.03998,0.04 -14.58997,-6.45001 -14.62998,-14.48999 -0.03,-8.04001 6.46,-14.59003 14.49997,-14.63001 8.03998,-0.04 14.59,6.44999 14.63001,14.5 z m -14.52002,9.62 c 5.12997,-0.021 9.27002,-4.20001 9.25,-9.33002 -0.03,-5.12997 -4.20001,-9.27099 -9.33002,-9.25 -5.14099,0.03 -9.27997,4.21002 -9.24997,9.34003 0.02,5.12997 4.19998,9.26999 9.32999,9.23999 z"
             transform="matrix(0.96592583,-0.25881905,0.25881905,0.96592583,-72.959329,87.168874)" />
          <path
             style="fill:#6d6e71"
             inkscape:connector-curvature="0"
             id="svg_71"
             d="m 303.94119,320.89426 c 0.02,5.13 -4.12002,9.31002 -9.25,9.33001 -5.13,0.03 -9.31097,-4.11001 -9.33099,-9.23999 -0.03,-5.13 4.10998,-9.31002 9.24997,-9.34002 5.13101,-0.02 9.30102,4.12002 9.33102,9.25 z"
             transform="matrix(0.96592583,-0.25881905,0.25881905,0.96592583,-73.023842,87.196851)" />
          <path
             style="fill:#dcdcdc"
             inkscape:connector-curvature="0"
             id="svg_72"
             d="m 232.82202,164.75275 35.22,54.68 -3.88,18.78998 c -1.79999,-5.50998 -5.31,-10.23997 -9.89998,-13.56997 l 0.20996,-0.29001 -26.77997,-40.84 2.81,-3.48 c 2.78,-3 2.81,-8.57 1.39,-15.08 l 0.92999,-0.21 z"
             transform="matrix(0.96592583,-0.25881905,0.25881905,0.96592583,-43.703069,71.018237)" />
          <path
             style="fill:#58595b"
             inkscape:connector-curvature="0"
             id="svg_73"
             d="m 252.24538,275.23282 c -0.64,0.05 -1.28,0.07 -1.93,0.07 -6.36,0 -12.21,-2.17002 -16.85,-5.82001 -4.31,-3.37 -7.59,-8.03 -9.25,-13.38001 -0.79999,-2.56997 -1.23,-5.29998 -1.23,-8.12997 0,-9.14001 4.48,-17.23 11.37,-22.19 0.1,-0.08 0.21,-0.15 0.32,-0.22 3.80001,-2.67 8.31,-4.39 13.19001,-4.81999 0.8,-0.07 1.61999,-0.11001 2.44999,-0.11001 6.00002,0 11.55001,1.93 16.06002,5.22 4.58996,3.33001 8.09997,8.06 9.89996,13.56998 0.89001,2.69 1.36999,5.56 1.36999,8.55002 0,9.86999 -5.22998,18.51999 -13.06994,23.31 -3.63001,2.22998 -7.83002,3.63998 -12.33003,3.94998 z m 6.72001,-26.89999 c 0,-4.91999 -3.99,-8.91001 -8.91,-8.91001 -4.92,0 -8.90001,3.99002 -8.90001,8.91001 0,4.92001 3.98001,8.91 8.90001,8.91 4.92,0 8.91,-3.98999 8.91,-8.91 z"
             transform="matrix(0.96592583,-0.25881905,0.25881905,0.96592583,-55.649564,73.235594)" />
          <path
             style="fill:#000000;fill-opacity:0"
             inkscape:connector-curvature="0"
             id="svg_74"
             d="m 262.97415,272.81583 22.54999,34.5 c -6.14102,-1.35898 -11.45999,-1.48899 -14.62097,0.63 l -26.70903,-40.88 c 4.64,3.64999 10.49,5.82 16.85002,5.82 0.64999,0 1.28998,-0.02 1.92999,-0.07 z"
             transform="matrix(0.96592583,-0.25881905,0.25881905,0.96592583,-65.387177,78.347083)" />
          <path
             style="fill:#000000;fill-opacity:0;stroke:#000000;stroke-opacity:0"
             inkscape:connector-curvature="0"
             id="svg_75"
             d="m 228.90604,187.29393 26.77996,40.84 -0.20996,0.29 c -4.51001,-3.29 -10.06,-5.22 -16.06001,-5.22 -0.83,0 -1.64999,0.04 -2.45,0.11 l -22.44999,-34.33 c 6.30999,1.27001 11.61999,1.11 14.38999,-1.69 z"
             transform="matrix(0.96592583,-0.25881905,0.25881905,0.96592583,-45.786996,67.93124)" />
          <path
             style="fill:#dcdcdc"
             inkscape:connector-curvature="0"
             id="svg_76"
             d="m 245.47255,270.54825 26.71001,40.879 c -0.37998,0.25 -0.72998,0.54001 -1.03998,0.86001 l -2.79001,3.48999 c -2.79001,3.04001 -2.77002,8.67999 -1.28003,15.26001 l -34.70999,-55.17001 3.86,-18.69998 c 1.66,5.35098 4.94,10.01098 9.25,13.38098 z"
             transform="matrix(0.96592583,-0.25881905,0.25881905,0.96592583,-67.523205,75.31434)" />
          <path
             style="fill:#6d6e71"
             inkscape:connector-curvature="0"
             id="svg_77"
             d="m 250.15855,239.47638 c 4.92,0 8.90999,3.99002 8.90999,8.91 0,4.92002 -3.98999,8.91001 -8.90999,8.91001 -4.91999,0 -8.9,-3.98999 -8.9,-8.91001 0,-4.91998 3.98001,-8.91 8.9,-8.91 z m 4.86001,10.66 -0.47001,-5.03997 -4.6,-2.11002 -4.13001,2.92999 0.47,5.04001 4.60001,2.10999 4.13001,-2.93 z"
             transform="matrix(0.96592583,-0.25881905,0.25881905,0.96592583,-55.762896,73.210755)" />
          <polygon
             style="fill:#414042"
             id="svg_78"
             points="250.787,253.013 246.187,250.903 245.717,245.863 249.847,242.933 254.447,245.043 254.917,250.083 "
             transform="matrix(0.96592583,-0.25881905,0.25881905,0.96592583,-55.65079,73.236282)" />
          <path
             style="fill:#dcdcdc"
             inkscape:connector-curvature="0"
             id="svg_79"
             d="m 214.43965,194.23375 22.45,34.33 c -4.88001,0.42999 -9.39,2.14999 -13.19,4.81999 l -30.34,-46.37999 c 6.95,3.04999 14.55,5.90999 21.08,7.23 z"
             transform="matrix(0.96592583,-0.25881905,0.25881905,0.96592583,-47.072004,62.840634)" />
          <path
             style="fill:#000000"
             inkscape:connector-curvature="0"
             id="svg_80"
             d="m 219.98297,193.6322 -2.81,3.48 c -2.77,2.8 -8.08,2.96 -14.39,1.69 -6.53,-1.32001 -14.13,-4.18001 -21.08,-7.23 -9.16,-4.03 -17.18001,-8.40001 -20.11,-10.04001 l 41.76999,-44.55 c 0,0 14.21001,24.17001 18.01001,41.57001 1.42,6.50999 1.39,12.08 -1.39,15.08 z m -3.27,-15.02 c 0,-8.04 -6.52001,-14.56 -14.56,-14.56 -8.05,0 -14.57001,6.52 -14.57001,14.56 0,8.03999 6.52001,14.56 14.57001,14.56 8.03999,0 14.56,-6.51999 14.56,-14.56 z"
             transform="matrix(0.96592583,-0.25881905,0.25881905,0.96592583,-36.994774,55.410795)" />
          <path
             style="fill:#414042"
             inkscape:connector-curvature="0"
             id="svg_81"
             d="m 204.49831,161.05717 c 8.03999,0 14.55999,6.52001 14.55999,14.56 0,8.04 -6.52,14.56 -14.55999,14.56 -8.05001,0 -14.57001,-6.51999 -14.57001,-14.56 0,-8.04001 6.52,-14.56 14.57001,-14.56 z m 9.28999,14.29 c 0,-5.12999 -4.15999,-9.29 -9.28999,-9.29 -5.14,0 -9.29001,4.16001 -9.29001,9.29 0,5.12999 4.15001,9.29001 9.29001,9.29001 5.13,0 9.28999,-4.16001 9.28999,-9.29001 z"
             transform="matrix(0.96592583,-0.25881905,0.25881905,0.96592583,-38.485094,58.910687)" />
          <path
             style="fill:#6d6e71"
             inkscape:connector-curvature="0"
             id="svg_82"
             d="m 204.42827,166.06508 c 5.13,0 9.28999,4.16 9.28999,9.28999 0,5.12999 -4.15999,9.29001 -9.28999,9.29001 -5.14,0 -9.29001,-4.16 -9.29001,-9.29001 0,-5.13 4.15001,-9.28999 9.29001,-9.28999 z"
             transform="matrix(0.96592583,-0.25881905,0.25881905,0.96592583,-38.419498,58.884936)" />
          <path
             style="fill:#6d6e71"
             inkscape:connector-curvature="0"
             id="svg_83"
             d="m 157.19597,187.93033 -0.04,0.04 c 0,0 -4.37,-2.26001 -11.12,-6.13001 -5.27999,-3.03 -6.96,-11.41 -9.83999,-23.36999 -0.8,-3.33001 -1.69,-6.94001 -2.78,-10.78 -3.98001,-14.02001 1.04999,-20.03001 3.28,-21.91001 0.02,-0.02 0.04,-0.04 0.07,-0.06 2.92,-2.69 9.3,-5.82 20.48001,-3.42 3.17999,0.68 6.2,1.24 9.03,1.74 13.12999,2.32 22.31999,3.31 25.86,8.64 4.29999,6.49 6.82999,10.69999 6.82999,10.69999 l -41.76999,44.55001 z m 34.83999,-45.24001 c 0,-2.75999 -2.24,-5 -5,-5 -2.75999,0 -5,2.24001 -5,5 0,2.76001 2.24001,5.00002 5,5.00002 2.76,0 5,-2.24001 5,-5.00002 z m -34.88,34.32001 c 0,-2.76 -2.23999,-5 -5,-5 -2.76999,0 -5,2.24 -5,5 0,2.76 2.23001,5 5,5 2.76001,0 5,-2.24 5,-5 z m -2.04999,-39.32001 c 0,-2.75999 -2.24,-5 -5,-5 -2.76001,0 -5,2.24001 -5,5 0,2.76001 2.23999,5 5,5 2.76,0 5,-2.23999 5,-5 z"
             transform="matrix(0.96592583,-0.25881905,0.25881905,0.96592583,-34.403614,48.092607)" />
          <circle
             d="m 188.19019,137.51244 c 0,2.76142 -2.23858,5 -5,5 -2.76143,0 -5,-2.23858 -5,-5 0,-2.76143 2.23857,-5 5,-5 2.76142,0 5,2.23857 5,5 z"
             style="fill:#414042"
             sodipodi:ry="5"
             sodipodi:rx="5"
             sodipodi:cy="137.51244"
             sodipodi:cx="183.19019"
             id="svg_84"
             r="5"
             cy="137.51244"
             cx="183.19019"
             transform="matrix(0.96592583,-0.25881905,0.25881905,0.96592583,-29.348677,52.098669)" />
          <path
             style="fill:#e6e7e8"
             inkscape:connector-curvature="0"
             id="svg_85"
             d="m 186.69353,203.38553 c 4.16999,15.46001 -11.17,26.05 -11.17,26.05 0,0 -27.16001,-12 -43,-18.67 -2.66001,-18.83 13.5,-27.66999 13.5,-27.66999 0,0 25.5,12.33999 40.67,20.28999 z m -16.51,3.76001 c 0,-5.18001 -4.19,-9.37001 -9.36,-9.37001 -5.18001,0 -9.37001,4.19 -9.37001,9.37001 0,5.17 4.19,9.36 9.37001,9.36 5.17,0 9.36,-4.19 9.36,-9.36 z"
             transform="matrix(0.96592583,-0.25881905,0.25881905,0.96592583,-47.934792,48.431109)" />
          <path
             style="fill:#d1d3d4"
             inkscape:connector-curvature="0"
             id="svg_86"
             d="m 162.21761,129.96765 c -2.83001,-0.5 -5.85001,-1.06 -9.03,-1.74 -11.18001,-2.4 -17.56002,0.73001 -20.48001,3.42001 -0.03,0.02 -0.05,0.04 -0.07,0.06 -2.23001,1.87999 -7.26,7.89 -3.28,21.91002 1.09,3.83999 1.98,7.44998 2.78,10.78 -7.46,-3.93003 -12.54,-11.76001 -12.54,-20.78002 0,-12.97999 10.52,-23.50001 23.49999,-23.50001 7.88001,0 14.86001,3.88001 19.12001,9.85 z"
             transform="matrix(0.96592583,-0.25881905,0.25881905,0.96592583,-32.017756,41.316998)" />
          <path
             style="fill:#414042"
             inkscape:connector-curvature="0"
             id="svg_87"
             d="m 158.38136,174.69061 c 2.76001,0 5,2.24001 5,5 0,2.76 -2.23999,5 -5,5 -2.76999,0 -5,-2.24 -5,-5 0,-2.75999 2.23001,-5 5,-5 z"
             transform="matrix(0.96592583,-0.25881905,0.25881905,0.96592583,-41.110751,47.114842)" />
          <path
             style="fill:#6d6e71"
             inkscape:connector-curvature="0"
             id="svg_88"
             d="m 161.02101,197.52553 c 5.17,0 9.36,4.19 9.36,9.37001 0,5.17 -4.19,9.36 -9.36,9.36 -5.18001,0 -9.37001,-4.19 -9.37001,-9.36 0,-5.18001 4.19,-9.37001 9.37001,-9.37001 z m 4.65999,9.37001 c 0,-2.58 -2.09,-4.67 -4.65999,-4.67 -2.58,0 -4.67,2.09 -4.67,4.67 0,2.56999 2.09,4.65999 4.67,4.65999 2.56999,0 4.65999,-2.09 4.65999,-4.65999 z"
             transform="matrix(0.96592583,-0.25881905,0.25881905,0.96592583,-48.060844,48.723647)" />
          <circle
             d="m 151.22446,142.24098 c 0,2.76143 -2.23858,5 -5,5 -2.76143,0 -5,-2.23857 -5,-5 0,-2.76142 2.23857,-5 5,-5 2.76142,0 5,2.23858 5,5 z"
             style="fill:#414042"
             sodipodi:ry="5"
             sodipodi:rx="5"
             sodipodi:cy="142.24098"
             sodipodi:cx="146.22446"
             id="svg_89"
             r="5"
             cy="142.24098"
             cx="146.22446"
             transform="matrix(0.96592583,-0.25881905,0.25881905,0.96592583,-31.832218,42.692301)" />
          <path
             style="fill:#414042"
             inkscape:connector-curvature="0"
             id="svg_90"
             d="m 161.02101,202.22554 c 2.56999,0 4.65999,2.09 4.65999,4.67 0,2.56999 -2.09,4.65999 -4.65999,4.65999 -2.58,0 -4.67,-2.09 -4.67,-4.65999 0,-2.58 2.09,-4.67 4.67,-4.67 z"
             transform="matrix(0.96592583,-0.25881905,0.25881905,0.96592583,-48.060844,48.723647)" />
        </g>
        <g
           id="svg_91">
          <path
             style="fill:#000000;stroke:#000000;stroke-miterlimit:10"
             inkscape:connector-curvature="0"
             id="svg_101"
             d="m 223.47331,185.6655 c 0.06,-0.06 0.11,-0.12 0.17,-0.18 2.78,-3 2.81,-8.57 1.39,-15.08 -3.8,-17.39999 -18.01001,-41.57001 -18.01001,-41.57001"
             stroke-miterlimit="10"
             transform="matrix(0.96592583,-0.25881905,0.25881905,0.96592583,-38.422095,64.22721)" />
          <path
             style="fill:#000000;stroke:#000000;stroke-miterlimit:10"
             inkscape:connector-curvature="0"
             id="svg_108"
             d="m 332.88297,315.54874 c 0,0 -0.42002,-0.23999 -1.18903,-0.66001 -3,-1.67001 -11.32999,-6.14999 -20.75,-10.20999 -6.35098,-2.73001 -13.19998,-5.27099 -19.25,-6.61001 -6.14099,-1.35898 -11.45996,-1.48899 -14.62097,0.63 -0.37998,0.25 -0.72998,0.54001 -1.03998,0.86002 l -2.79001,3.48999"
             stroke-miterlimit="10"
             transform="matrix(0.96592583,-0.25881905,0.25881905,0.96592583,-68.952499,88.87577)" />
          <path
             style="fill:#000000;stroke:#000000;stroke-miterlimit:10"
             inkscape:connector-curvature="0"
             id="svg_114"
             d="m 275.57223,310.71405 c -0.06,0.06 -0.10998,0.11899 -0.16998,0.17999 -2.79001,3.04001 -2.77002,8.68 -1.28,15.26001 3.93,17.37 18.15998,41.31998 18.15998,41.31998"
             stroke-miterlimit="10"
             transform="matrix(0.96592583,-0.25881905,0.25881905,0.96592583,-73.068636,81.856604)" />
          <path
             style="fill:#dcdcdc;stroke:#000000;stroke-miterlimit:10"
             inkscape:connector-curvature="0"
             id="svg_111"
             d="m 366.65283,329.08984 c 7.47901,3.89002 12.59003,11.70002 12.63001,20.72001 0.06,12.98001 -10.41001,23.55001 -23.39099,23.60101 -7.88001,0.04 -14.88001,-3.81101 -19.159,-9.76102"
             stroke-miterlimit="10"
             transform="matrix(0.96592583,-0.25881905,0.25881905,0.96592583,-78.385225,107.1071)" />
          <path
             style="fill:#000000;stroke:#000000;stroke-miterlimit:10"
             inkscape:connector-curvature="0"
             id="svg_113"
             d="m 361.62573,370.88577 c 0,0 0.36002,-0.19 0.89102,-0.63 0.029,-0.021 0.05,-0.04 0.069,-0.061 2.22098,-1.88998 7.22098,-7.92999 3.181,-21.92999 -1.11001,-3.82999 -2.01101,-7.439 -2.83001,-10.76001 -2.931,-11.94998 -4.65,-20.31998 -9.94,-23.32999 -6.76999,-3.83999 -11.15,-6.07998 -11.15,-6.07998 l -0.039,0.04 -41.57001,44.74002 c 0,0 2.55002,4.19999 6.88001,10.66999 3.56,5.31 12.76001,6.26001 25.89999,8.51999 2.82901,0.49002 5.85001,1.03003 9.02902,1.70001 11.19001,2.35101 17.56101,-0.81 20.47098,-3.51001"
             stroke-miterlimit="10"
             transform="matrix(0.96592583,-0.25881905,0.25881905,0.96592583,-76.972751,98.01591)" />
          <path
             style="fill:#000000;stroke:#000000;stroke-miterlimit:10"
             inkscape:connector-curvature="0"
             id="svg_122"
             d="m 266.3858,225.85147 c 4.66999,3.453 8.09998,8.06 9.89997,13.56998 0.89001,2.69 1.36999,5.56 1.36999,8.55002 0,9.86999 -5.22998,18.51998 -13.06994,23.30999 -3.63001,2.22998 -7.83002,3.63999 -12.33004,3.94999 -0.64,0.05 -1.28,0.07 -1.92999,0.07 -6.36,0 -12.21001,-2.17001 -16.85001,-5.82 -4.30999,-3.37 -7.58999,-8.03 -9.25,-13.38001 -0.79998,-2.56998 -1.22999,-5.29999 -1.22999,-8.12997 0,-9.14002 4.47999,-17.23 11.36999,-22.19001 0.10001,-0.08 0.21001,-0.14999 0.32001,-0.22 3.8,-2.66999 6.02,-4.52299 13.19,-4.81999 7.17,-0.297 13.84003,1.657 18.51001,5.11 z"
             stroke-miterlimit="10"
             transform="matrix(0.96592583,-0.25881905,0.25881905,0.96592583,-55.659283,73.23977)" />
          <path
             style="fill:#000000;stroke:#000000;stroke-miterlimit:10"
             inkscape:connector-curvature="0"
             id="svg_95"
             d="m 166.15822,180.56605 c 0,0 0.42,0.24001 1.19,0.67 2.92999,1.64 10.95,6.01001 20.11,10.04001 6.95,3.04999 14.55,5.90999 21.08,7.23 6.31,1.27 11.62,1.11 14.39,-1.69 l 2.81,-3.48"
             stroke-miterlimit="10"
             transform="matrix(0.96592583,-0.25881905,0.25881905,0.96592583,-42.47737,57.186339)" />
          <path
             style="fill:#dcdcdc;stroke:#000000;stroke-miterlimit:10"
             inkscape:connector-curvature="0"
             id="svg_98"
             d="m 132.46336,166.87198 c -7.46001,-3.93001 -12.54001,-11.76001 -12.54001,-20.78001 0,-12.98 10.52001,-23.5 23.50001,-23.5 7.88,0 14.86,3.88 19.12001,9.85"
             stroke-miterlimit="10"
             transform="matrix(0.96592583,-0.25881905,0.25881905,0.96592583,-32.972749,39.011103)" />
          <path
             style="fill:#000000;stroke:#000000;stroke-miterlimit:10"
             inkscape:connector-curvature="0"
             id="svg_100"
             d="m 137.65596,125.09033 c 0,0 -0.36,0.19 -0.89,0.63 -0.03,0.02 -0.05,0.04 -0.07,0.06 -2.23001,1.88 -7.26001,7.89 -3.28,21.91001 1.09,3.83999 1.98,7.44999 2.78,10.78 2.87999,11.95999 4.56,20.33999 9.83999,23.36999 6.75,3.87 11.12,6.13001 11.12,6.13001 l 0.04,-0.04 41.76999,-44.55001 c 0,0 -2.53,-4.20999 -6.82999,-10.69999 -3.54001,-5.33 -12.73001,-6.32 -25.86,-8.64 -2.83,-0.5 -5.85001,-1.06 -9.03,-1.74 -11.18001,-2.4 -17.56001,0.73 -20.48001,3.42"
             stroke-miterlimit="10"
             transform="matrix(0.96592583,-0.25881905,0.25881905,0.96592583,-34.403614,48.092607)" />
          <path
             style="fill:#dcdcdc;stroke:#000000;stroke-miterlimit:10"
             inkscape:connector-curvature="0"
             id="svg_92"
             d="m 163.38136,179.69061 c 0,2.76 -2.23999,5 -5,5 -2.76999,0 -5,-2.24 -5,-5 0,-2.75999 2.23001,-5 5,-5 2.76001,0 5,2.24001 5,5 z"
             stroke-miterlimit="10"
             transform="matrix(0.96592583,-0.25881905,0.25881905,0.96592583,-41.110751,47.114842)" />
          <path
             style="fill:#dcdcdc;stroke:#000000;stroke-miterlimit:10"
             inkscape:connector-curvature="0"
             id="svg_93"
             d="m 219.0583,175.61717 c 0,8.04001 -6.52,14.56 -14.55999,14.56 -8.05001,0 -14.57001,-6.51999 -14.57001,-14.56 0,-8.04001 6.52,-14.56 14.57001,-14.56 8.03999,0 14.55999,6.52001 14.55999,14.56 z"
             stroke-miterlimit="10"
             transform="matrix(0.96592583,-0.25881905,0.25881905,0.96592583,-38.485094,58.910687)" />
          <path
             style="fill:#000000;stroke:#000000;stroke-miterlimit:10"
             inkscape:connector-curvature="0"
             id="svg_94"
             d="m 213.71826,175.35507 c 0,5.13001 -4.15999,9.29001 -9.28999,9.29001 -5.14,0 -9.29001,-4.16 -9.29001,-9.29001 0,-5.13 4.15001,-9.28999 9.29001,-9.28999 5.13,0 9.28999,4.16 9.28999,9.28999 z"
             stroke-miterlimit="10"
             transform="matrix(0.96592583,-0.25881905,0.25881905,0.96592583,-38.419498,58.884936)" />
          <circle
             d="m 188.19019,137.51244 c 0,2.76142 -2.23858,5 -5,5 -2.76143,0 -5,-2.23858 -5,-5 0,-2.76143 2.23857,-5 5,-5 2.76142,0 5,2.23857 5,5 z"
             style="fill:#dcdcdc;stroke:#000000;stroke-miterlimit:10"
             sodipodi:ry="5"
             sodipodi:rx="5"
             sodipodi:cy="137.51244"
             sodipodi:cx="183.19019"
             id="svg_96"
             r="5"
             cy="137.51244"
             cx="183.19019"
             stroke-miterlimit="10"
             transform="matrix(0.96592583,-0.25881905,0.25881905,0.96592583,-29.348677,52.098669)" />
          <circle
             d="m 151.22446,142.24098 c 0,2.76143 -2.23858,5 -5,5 -2.76143,0 -5,-2.23857 -5,-5 0,-2.76142 2.23857,-5 5,-5 2.76142,0 5,2.23858 5,5 z"
             style="fill:#dcdcdc;stroke:#000000;stroke-miterlimit:10"
             sodipodi:ry="5"
             sodipodi:rx="5"
             sodipodi:cy="142.24098"
             sodipodi:cx="146.22446"
             id="svg_97"
             r="5"
             cy="142.24098"
             cx="146.22446"
             stroke-miterlimit="10"
             transform="matrix(0.96592583,-0.25881905,0.25881905,0.96592583,-31.832218,42.692301)" />
          <path
             style="fill:none;stroke:#000000;stroke-miterlimit:10"
             inkscape:connector-curvature="0"
             id="svg_99"
             d="m 130.18886,134.20758 c -0.91001,0.84999 -1.48001,1.65999 -1.73001,2.22"
             stroke-miterlimit="10"
             transform="matrix(0.96592583,-0.25881905,0.25881905,0.96592583,-30.299504,38.268419)" />
          <path
             style="fill:#dcdcdc;stroke:#000000;stroke-miterlimit:10"
             inkscape:connector-curvature="0"
             id="svg_102"
             d="m 146.0408,183.22679 c 0,0 -16.16,8.84 -13.5,27.67 15.84,6.67 43,18.67 43,18.67 0,0 15.34,-10.59 11.17,-26.05001 -15.17,-7.94999 -40.67,-20.28999 -40.67,-20.28999 z"
             stroke-miterlimit="10"
             transform="matrix(0.96592583,-0.25881905,0.25881905,0.96592583,-47.985393,48.308751)" />
          <path
             style="fill:#000000;stroke:#000000;stroke-miterlimit:10"
             inkscape:connector-curvature="0"
             id="svg_103"
             d="m 170.38101,206.89554 c 0,5.17 -4.19,9.36 -9.36,9.36 -5.18001,0 -9.37001,-4.19 -9.37001,-9.36 0,-5.18001 4.19,-9.37001 9.37001,-9.37001 5.17,0 9.36,4.19 9.36,9.37001 z"
             stroke-miterlimit="10"
             transform="matrix(0.96592583,-0.25881905,0.25881905,0.96592583,-48.060844,48.723647)" />
          <path
             style="fill:#dcdcdc;stroke:#000000;stroke-miterlimit:10"
             inkscape:connector-curvature="0"
             id="svg_104"
             d="m 165.681,206.89554 c 0,2.56999 -2.09,4.65999 -4.65999,4.65999 -2.58,0 -4.67,-2.09 -4.67,-4.65999 0,-2.58 2.09,-4.67 4.67,-4.67 2.56999,0 4.65999,2.09 4.65999,4.67 z"
             stroke-miterlimit="10"
             transform="matrix(0.96592583,-0.25881905,0.25881905,0.96592583,-48.060844,48.723647)" />
          <path
             style="fill:#dcdcdc;stroke:#000000;stroke-miterlimit:10"
             inkscape:connector-curvature="0"
             id="svg_105"
             d="m 335.67523,316.41766 c -0.011,-2.76001 2.22,-5.01001 4.97901,-5.02002 2.75997,-0.021 5.00997,2.21 5.02099,4.97001 0.01,2.77002 -2.22101,5.01001 -4.98001,5.02999 -2.76001,0.01 -5.01001,-2.22 -5.01999,-4.97998 z"
             stroke-miterlimit="10"
             transform="matrix(0.96592583,-0.25881905,0.25881905,0.96592583,-70.281609,98.954179)" />
          <path
             style="fill:#dcdcdc;stroke:#000000;stroke-miterlimit:10"
             inkscape:connector-curvature="0"
             id="svg_106"
             d="m 280.0115,320.74466 c -0.03,-8.04001 6.46,-14.59003 14.49997,-14.63001 8.03998,-0.04 14.59,6.44999 14.63001,14.5 0.04,8.03998 -6.45999,14.59 -14.5,14.62 -8.03998,0.04 -14.58997,-6.45001 -14.62998,-14.48999 z"
             stroke-miterlimit="10"
             transform="matrix(0.96592583,-0.25881905,0.25881905,0.96592583,-72.959363,87.168615)" />
          <path
             style="fill:#000000;stroke:#000000;stroke-miterlimit:10"
             inkscape:connector-curvature="0"
             id="svg_107"
             d="m 285.36118,320.98416 c -0.03,-5.13 4.10998,-9.31003 9.24997,-9.34003 5.13,-0.021 9.30001,4.12003 9.33001,9.25 0.02,5.13001 -4.12002,9.31003 -9.25,9.33002 -5.13,0.03 -9.30996,-4.11002 -9.32999,-9.23999 z"
             stroke-miterlimit="10"
             transform="matrix(0.96592583,-0.25881905,0.25881905,0.96592583,-73.023842,87.196851)" />
          <path
             style="fill:#dcdcdc;stroke:#000000;stroke-miterlimit:10"
             inkscape:connector-curvature="0"
             id="svg_109"
             d="m 311.05014,358.71188 c -0.01,-2.76098 2.22,-5.01098 4.98001,-5.02999 2.75998,-0.01 5.00998,2.22 5.01999,4.979 0.01,2.76098 -2.22,5.01098 -4.979,5.021 -2.76099,0.02 -5.01099,-2.21 -5.021,-4.97001 z"
             stroke-miterlimit="10"
             transform="matrix(0.96592583,-0.25881905,0.25881905,0.96592583,-82.06459,94.021552)" />
          <path
             style="fill:#dcdcdc;stroke:#000000;stroke-miterlimit:10"
             inkscape:connector-curvature="0"
             id="svg_110"
             d="m 347.99353,353.81366 c -0.01,-2.76102 2.22,-5.01102 4.979,-5.021 2.76099,-0.02 5.01099,2.20999 5.021,4.96997 0.02,2.77103 -2.21002,5.01102 -4.97,5.03003 -2.76001,0.011 -5.01001,-2.21902 -5.03,-4.979 z"
             stroke-miterlimit="10"
             transform="matrix(0.96592583,-0.25881905,0.25881905,0.96592583,-79.540388,103.41677)" />
          <path
             style="fill:none;stroke:#000000;stroke-miterlimit:10"
             inkscape:connector-curvature="0"
             id="svg_112"
             d="m 369.07181,361.75354 c 0.89999,-0.85901 1.47098,-1.66998 1.72098,-2.229"
             stroke-miterlimit="10"
             transform="matrix(0.96592583,-0.25881905,0.25881905,0.96592583,-81.053001,107.84933)" />
          <path
             style="fill:#dcdcdc;stroke:#000000;stroke-miterlimit:10"
             inkscape:connector-curvature="0"
             id="svg_115"
             d="m 352.99457,312.80194 c 0,0 16.13,-8.91 13.38,-27.72998 -15.86999,-6.60001 -43.08999,-18.47 -43.08999,-18.47 0,0 -15.28,10.64999 -11.05002,26.09 15.21002,7.88998 40.76001,20.10998 40.76001,20.10998 z"
             stroke-miterlimit="10"
             transform="matrix(0.96592583,-0.25881905,0.25881905,0.96592583,-63.413508,97.730587)" />
          <path
             style="fill:#000000;stroke:#000000;stroke-miterlimit:10"
             inkscape:connector-curvature="0"
             id="svg_116"
             d="m 328.54471,289.24588 c -0.021,-5.16998 4.14898,-9.38 9.32999,-9.39999 5.17001,-0.03 9.38,4.14999 9.40899,9.32 0.021,5.16999 -4.15899,9.38001 -9.32898,9.41001 -5.17001,0.02 -9.38,-4.15 -9.41,-9.33002 z"
             stroke-miterlimit="10"
             transform="matrix(0.96592583,-0.25881905,0.25881905,0.96592583,-63.339175,97.313205)" />
          <path
             style="fill:#dcdcdc;stroke:#000000;stroke-miterlimit:10"
             inkscape:connector-curvature="0"
             id="svg_117"
             d="m 333.24441,289.2258 c -0.01,-2.57001 2.07001,-4.67099 4.65003,-4.681 2.57999,-0.02 4.66998,2.06101 4.68997,4.64099 0.01,2.58002 -2.06998,4.67999 -4.64999,4.689 -2.58002,0.009 -4.68,-2.069 -4.69001,-4.64899 z"
             stroke-miterlimit="10"
             transform="matrix(0.96592583,-0.25881905,0.25881905,0.96592583,-63.338916,97.313171)" />
          <path
             style="fill:#dcdcdc;stroke:#000000;stroke-miterlimit:10"
             inkscape:connector-curvature="0"
             id="svg_118"
             d="m 259.06854,248.38638 c 0,4.92002 -3.98999,8.91001 -8.90999,8.91001 -4.91999,0 -8.90001,-3.98999 -8.90001,-8.91001 0,-4.91998 3.98002,-8.91 8.90001,-8.91 4.92,0 8.90999,3.99002 8.90999,8.91 z"
             stroke-miterlimit="10"
             transform="matrix(0.96592583,-0.25881905,0.25881905,0.96592583,-55.762896,73.210755)" />
          <polygon
             style="fill:#000000;stroke:#000000;stroke-miterlimit:10"
             id="svg_119"
             points="246.187,250.903 245.717,245.863 249.847,242.933 254.447,245.043 254.917,250.083 250.787,253.013 "
             stroke-miterlimit="10"
             transform="matrix(0.96592583,-0.25881905,0.25881905,0.96592583,-55.65079,73.236282)" />
          <polyline
             style="fill:none;stroke-miterlimit:10"
             id="svg_120"
             points="232.799 164.33 268.019 219.01 264.139 237.8"
             stroke-miterlimit="10"
             stroke="#800000018000000180000001"
             transform="matrix(0.96592583,-0.25881905,0.25881905,0.96592583,-43.506972,71.661742)" />
          <polyline
             style="fill:none;stroke-miterlimit:10"
             id="svg_121"
             points="267.148 331.701 232.438 276.531 236.298 257.831 236.318 257.741"
             stroke-miterlimit="10"
             stroke="#800000018000000180000001"
             transform="matrix(0.96592583,-0.25881905,0.25881905,0.96592583,-67.767918,74.69356)" />
          <path
             style="fill:none;stroke-miterlimit:10"
             inkscape:connector-curvature="0"
             id="svg_123"
             d="m 240.84654,221.98943 c 0.8,-0.07 1.62,-0.11001 2.45,-0.11001 6.00001,0 11.55,1.93 16.06003,5.22001"
             stroke-miterlimit="10"
             stroke="#800000018000000180000001"
             transform="matrix(0.96592583,-0.25881905,0.25881905,0.96592583,-49.192343,70.215062)" />
          <polyline
             style="fill:none;stroke-miterlimit:10"
             id="svg_124"
             points="275.487 262.187 304.957 307.247 305.147 307.537"
             stroke-miterlimit="10"
             stroke="#800000018000000180000001"
             transform="matrix(0.96592583,-0.25881905,0.25881905,0.96592583,-63.835399,84.846006)" />
          <polyline
             style="fill:none;stroke-miterlimit:10"
             id="svg_125"
             points="244.455 268.948 271.165 309.828 271.225 309.928"
             stroke-miterlimit="10"
             stroke="#800000018000000180000001"
             transform="matrix(0.96592583,-0.25881905,0.25881905,0.96592583,-66.126382,76.596263)" />
          <polyline
             style="fill:none;stroke-miterlimit:10"
             id="svg_126"
             points="263.307 270.288 263.317 270.298 285.867 304.798 285.877 304.808"
             stroke-miterlimit="10"
             stroke="#800000018000000180000001"
             transform="matrix(0.96592583,-0.25881905,0.25881905,0.96592583,-65.066403,80.8676)" />
          <polyline
             style="fill:none;stroke-miterlimit:10"
             id="svg_127"
             points="193.572 188.692 193.582 188.712 223.922 235.092"
             stroke-miterlimit="10"
             stroke="#800000018000000180000001"
             transform="matrix(0.96592583,-0.25881905,0.25881905,0.96592583,-47.728804,61.247744)" />
          <line
             style="fill:none;stroke-miterlimit:10"
             id="svg_128"
             y2="225.79472"
             x2="236.84238"
             y1="191.46474"
             x1="214.39238"
             stroke-miterlimit="10"
             stroke="#800000018000000180000001"
             transform="matrix(0.96592583,-0.25881905,0.25881905,0.96592583,-46.309705,65.502871)" />
          <line
             style="fill:none;stroke-miterlimit:10"
             id="svg_129"
             y2="226.27666"
             x2="255.40334"
             y1="185.43665"
             x1="228.62334"
             stroke-miterlimit="10"
             stroke="#800000018000000180000001"
             transform="matrix(0.96592583,-0.25881905,0.25881905,0.96592583,-45.033319,69.651981)" />
        </g>
      </g>
    </g>
    <path
       style="fill:none;stroke-miterlimit:10"
       inkscape:connector-curvature="0"
       id="svg_130"
       d="M 405.6969,63.812187"
       stroke-miterlimit="10"
       stroke="#800000018000000180000001"
       transform="matrix(0.96592583,-0.25881905,0.25881905,0.96592583,-2.6920226,107.17646)" />
    <path
       style="fill:#e6e7e8;stroke:#000000;stroke-miterlimit:10"
       inkscape:connector-curvature="0"
       id="svg_131"
       d="M 228.32165,281.64267"
       stroke-miterlimit="10"
       transform="matrix(0.96592583,-0.25881905,0.25881905,0.96592583,-65.114689,68.690835)" />
    <path
       style="stroke:#000000;stroke-miterlimit:10"
       inkscape:connector-curvature="0"
       id="svg_132"
       d="M 295.89627,385.90884"
       stroke-miterlimit="10"
       transform="matrix(0.96592583,-0.25881905,0.25881905,0.96592583,-89.798187,89.73305)" />
  </g>
</svg>
