<svg width="500" height="500" xmlns="http://www.w3.org/2000/svg">
 <g>
  <title>Layer 1</title>
  <circle fill="#bfbfbf" stroke="#7c7c7c" stroke-dasharray="null" stroke-linejoin="null" stroke-linecap="null" fill-opacity="0" cx="249" cy="251" r="179.788757" id="svg_20"/>
  <g display="none" id="Layer_1">
   <g id="svg_2" display="inline">
    <g id="svg_3">
     <path id="svg_4" d="m135,216.832001c3.225006,0 3.225006,-5 0,-5s-3.225006,5 0,5l0,0z" fill="#800000018000000180000001"/>
    </g>
   </g>
   <g id="svg_5" display="inline">
    <g id="svg_6">
     <path id="svg_7" d="m135,216.832001c3.225006,0 3.225006,-5 0,-5s-3.225006,5 0,5l0,0z" fill="#800000018000000180000001"/>
    </g>
   </g>
   <g id="svg_8" display="inline">
    <g id="svg_9">
     <path id="svg_10" d="m135,216.832001c3.225006,0 3.225006,-5 0,-5s-3.225006,5 0,5l0,0z" fill="#800000018000000180000001"/>
    </g>
   </g>
   <path id="svg_11" d="m105.153,105.338997" fill="#800000018000000180000001"/>
  </g>
  <g display="none" id="Layer_6">
   <g id="svg_52" display="inline">
    <polyline id="svg_53" points="52.835,328.641     52.206,327.51 2.485,238.779 2.485,87.29 57.995,11.68 58.775,10.62   " stroke-miterlimit="10" stroke-width="5" stroke="#800000018000000180000001" fill="none"/>
    <polyline id="svg_54" points="50.985,327.51     52.206,327.51 237.155,327.51 287.505,238.779 287.505,87.29 232.285,11.68 57.995,11.68 57.695,11.68   " stroke-miterlimit="10" stroke-width="5" stroke="#800000018000000180000001" fill="none"/>
   </g>
  </g>
  <g id="Layer_5"/>
  <g id="Layer_3">
   <path id="svg_12" d="m257.575989,321.671997" stroke-miterlimit="10" stroke="#000000"/>
   <circle stroke="#56aaff" fill-opacity="0" id="svg_13" r="112.302002" cy="252.405" cx="248.992" stroke-width="48" fill="#bfbfbf"/>
   <g id="svg_14">
    <circle id="svg_15" r="107.853996" cy="250.405" cx="253.25" fill="none"/>
    <circle id="svg_24" r="107.853996" cy="250.405" cx="253.25" fill="none"/>
    <g id="svg_143">
     <text fill="black" x="124.21692" y="38.519545" id="svg_25" font-size="65" font-family="'LilyUPC'" transform="matrix(0.9675 0.2529 -0.3162 1.2094 155.835 83.2344)">S</text>
     <text fill="black" x="132.355077" y="12.143332" id="svg_26" font-size="65" font-family="'LilyUPC'" transform="matrix(0.8721 0.4893 -0.6116 1.0902 177.117 88.3013)">P</text>
     <text fill="black" x="132.857295" y="-7.93585" id="svg_27" font-size="65" font-family="'LilyUPC'" transform="matrix(0.7648 0.6442 -0.8053 0.956 198.371 100.883)">I</text>
     <text x="129.784837" y="-39.00886" id="svg_28" font-size="65" font-family="'LilyUPC'" transform="matrix(0.6304 0.7762 -0.9703 0.788 194.254 114.052)">R</text>
     <text x="119.805576" y="-46.610337" id="svg_29" font-size="65" font-family="'LilyUPC'" transform="matrix(0.473 0.8811 -1.1013 0.5913 221.105 125.663)">I</text>
     <text x="107.51047" y="-62.941527" id="svg_30" font-size="65" font-family="'LilyUPC'" transform="matrix(0.3084 0.9512 -1.1891 0.3855 226.139 133.476)">T</text>
     <text x="87.080186" y="-79.221247" id="svg_31" font-size="65" font-family="'LilyUPC'" transform="matrix(0.0757 0.9971 -1.2464 0.0946 235.692 152.526)">E</text>
     <text x="58.172284" y="-95.879106" id="svg_32" font-size="65" font-family="'LilyUPC'" transform="matrix(-0.1727 0.985 -1.2312 -0.2159 235.189 174.453)">D</text>
    </g>
   </g>
   <g id="svg_33">
    <circle id="svg_34" r="107.852997" cy="255.738333" cx="243.658667" fill="none"/>
    <circle id="svg_43" r="107.852997" cy="255.738333" cx="243.658667" fill="none"/>
    <g id="svg_141">
     <text x="54.824701" y="-93.550626" fill="black" id="svg_44" font-size="65" font-family="'LilyUPC'" transform="matrix(-0.2599 0.9656 -1.207 -0.3249 26.019 126.519)">R</text>
     <text x="84.922079" y="-77.8452" fill="black" id="svg_45" font-size="65" font-family="'LilyUPC'" transform="matrix(0.0162 0.9999 -1.2498 0.0203 17.9883 159.749)">O</text>
     <text fill="black" x="107.688236" y="-57.037433" id="svg_46" font-size="65" font-family="'LilyUPC'" transform="matrix(0.2808 0.9598 -1.1997 0.3511 19.5273 195.182)">B</text>
     <text fill="black" x="123.049623" y="-31.380795" id="svg_47" font-size="65" font-family="'LilyUPC'" transform="matrix(0.5319 0.8468 -1.0585 0.6649 30.0796 227.848)">O</text>
     <text fill="black" x="129.298113" y="-3.66917" id="svg_48" font-size="65" font-family="'LilyUPC'" transform="matrix(0.7325 0.6808 -0.851 0.9156 50.6927 255.741)">T</text>
     <text x="127.99771" y="13.756079" id="svg_49" font-size="65" font-family="'LilyUPC'" transform="matrix(0.8431 0.5378 -0.6723 1.0538 72.3359 276.456)">I</text>
     <text x="122.787459" y="32.051926" id="svg_50" font-size="65" font-family="'LilyUPC'" transform="matrix(0.9264 0.3764 -0.4706 1.158 86.1445 285.375)">C</text>
     <text x="108.551628" y="56.320135" id="svg_51" font-size="65" font-family="'LilyUPC'" transform="matrix(0.9905 0.1376 -0.172 1.2381 115.974 294.94)">S</text>
    </g>
   </g>
  </g>
  <g id="Layer_2">
   <g id="Layer_4">
    <line id="svg_55" y2="198.24" x2="245.181" y1="112.91" x1="245.785" stroke-miterlimit="10" stroke="#800000018000000180000001" fill="none"/>
    <line id="svg_56" y2="198.025" x2="257.576" y1="112.695" x1="258.181" stroke-miterlimit="10" stroke="#800000018000000180000001" fill="none"/>
    <line id="svg_57" y2="389.383" x2="242.492" y1="304.053" x1="243.097" stroke-miterlimit="10" stroke="#800000018000000180000001" fill="none"/>
    <line id="svg_58" y2="389.168" x2="254.888" y1="303.837" x1="255.492" stroke-miterlimit="10" stroke="#800000018000000180000001" fill="none"/>
   </g>
   <g id="XMLID_3_">
    <g id="XMLID_4_">
     <g id="svg_59">
      <path id="svg_60" d="m351.470001,310.420013c2.75,18.819977 -13.380005,27.72998 -13.380005,27.72998s-25.549988,-12.221008 -40.76001,-20.109985c-4.22998,-15.440002 11.050018,-26.089996 11.050018,-26.089996s27.220001,11.869995 43.089996,18.470001zm-28.23999,13.119995c5.169983,-0.029999 9.349976,-4.240021 9.328979,-9.410004c-0.028992,-5.170013 -4.238983,-9.350006 -9.408997,-9.320007c-5.181,0.019989 -9.350983,4.230011 -9.329987,9.399994c0.029999,5.180023 4.23999,9.350006 9.410004,9.330017z" fill="#E6E7E8"/>
      <path id="svg_61" d="m347.48999,380.339996c0.059998,12.980011 -10.410004,23.550018 -23.390991,23.601013c-7.880005,0.039978 -14.880005,-3.811005 -19.158997,-9.761017c2.82901,0.490021 5.850006,1.029999 9.028992,1.700012c11.190002,2.350983 17.561005,-0.809998 20.471008,-3.51001c0.028992,-0.020996 0.049988,-0.040009 0.069,-0.061005c2.221008,-1.889984 7.221008,-7.929993 3.181,-21.929993c-1.110016,-3.829987 -2.011017,-7.438995 -2.830017,-10.76001c7.480011,3.891022 12.590027,11.701019 12.630005,20.721008z" fill="#D1D3D4"/>
      <path id="svg_62" d="m334.51001,392.309998c-0.02002,0.020996 -0.040009,0.040009 -0.069,0.061005c-2.910004,2.700012 -9.279999,5.859985 -20.471008,3.51001c-3.179993,-0.670013 -6.200012,-1.210022 -9.028992,-1.700012c-13.141022,-2.26001 -22.341003,-3.209991 -25.900024,-8.519989c-4.329987,-6.470001 -6.879974,-10.670013 -6.879974,-10.670013l41.569977,-44.73999l0.039001,-0.040009c0,0 4.381012,2.23999 11.150024,6.079987c5.289978,3.01001 7.009979,11.380005 9.939972,23.330017c0.819,3.320007 1.720001,6.929993 2.830017,10.76001c4.040009,13.998993 -0.959991,20.039001 -3.179993,21.928986zm-13.440002,-6.850006c2.759979,-0.019989 4.988983,-2.259979 4.970001,-5.029999c-0.01001,-2.759979 -2.26001,-4.988983 -5.020996,-4.970001c-2.76001,0.01001 -4.989014,2.26001 -4.979004,5.020996c0.019989,2.759003 2.269989,4.989014 5.029999,4.979004zm-2.230011,-39.309998c2.76001,-0.020996 4.98999,-2.260986 4.980011,-5.029999c-0.011017,-2.76001 -2.261017,-4.98999 -5.020996,-4.970001c-2.76001,0.01001 -4.990021,2.26001 -4.979004,5.02002c0.009979,2.759979 2.259979,4.98999 5.019989,4.97998zm-34.730011,34.470001c2.76001,-0.01001 4.989014,-2.26001 4.979004,-5.020996c-0.009979,-2.76001 -2.259979,-4.989014 -5.019989,-4.979004c-2.760986,0.02002 -4.98999,2.27002 -4.980011,5.029999c0.011017,2.76001 2.261017,4.990021 5.020996,4.970001z" fill="#6D6E71"/>
      <path id="svg_63" d="m332.559998,314.130005c0.020996,5.169983 -4.158997,9.380005 -9.32901,9.410004c-5.17099,0.019989 -9.380981,-4.149994 -9.409973,-9.330017c-0.021027,-5.169983 4.148987,-9.380005 9.329987,-9.399994c5.169006,-0.029999 9.378998,4.149994 9.408997,9.320007zm-9.350006,4.709991c2.580017,-0.01001 4.660004,-2.109009 4.649994,-4.688995c-0.020996,-2.579987 -2.109985,-4.660004 -4.689972,-4.640991c-2.580017,0.009979 -4.660004,2.109985 -4.650024,4.681c0.01001,2.578979 2.110016,4.658997 4.690002,4.648987z" fill="#6D6E71"/>
      <path id="svg_64" d="m327.859985,314.149994c0.01001,2.580017 -2.069977,4.679993 -4.649994,4.688995s-4.679993,-2.069977 -4.690002,-4.648987c-0.009979,-2.570007 2.070007,-4.67099 4.650024,-4.681c2.579987,-0.019012 4.669983,2.061005 4.689972,4.640991z" fill="#414042"/>
      <path id="svg_65" d="m326.040009,380.429993c0.019989,2.770996 -2.210022,5.011017 -4.970001,5.029999c-2.761017,0.01001 -5.011017,-2.220001 -5.029999,-4.979004c-0.01001,-2.760986 2.220001,-5.010986 4.979004,-5.020996c2.760986,-0.019989 5.010986,2.210022 5.020996,4.970001z" fill="#414042"/>
      <path id="svg_66" d="m323.820007,341.119995c0.009979,2.77002 -2.221008,5.01001 -4.980011,5.029999c-2.76001,0.01001 -5.01001,-2.221008 -5.019989,-4.97998c-0.011017,-2.76001 2.220001,-5.01001 4.979004,-5.02002c2.760986,-0.019989 5.010986,2.209991 5.020996,4.970001z" fill="#414042"/>
      <path id="svg_67" d="m255.279999,318.410004l2.790009,-3.48999c0.309998,-0.320007 0.660004,-0.610016 1.039978,-0.860016c3.160004,-2.118988 8.480011,-1.988983 14.621002,-0.630005c6.050018,1.339996 12.899017,3.880005 19.25,6.610016c9.420013,4.059998 17.75,8.539978 20.75,10.209991l-41.569977,44.73999c0,0 -14.230011,-23.949982 -18.160004,-41.319977c-1.491013,-6.580017 -1.511002,-12.220001 1.278992,-15.26001zm17.970001,29.5c8.040009,-0.029999 14.540009,-6.580017 14.5,-14.619995c-0.040009,-8.050018 -6.589996,-14.540009 -14.630005,-14.5s-14.529999,6.589996 -14.5,14.630005c0.040009,8.039978 6.589996,14.529999 14.630005,14.48999z" fill="#000000"/>
      <path id="svg_68" d="m263.51001,274.980011l29.470978,45.059998c-6.350983,-2.730011 -13.199982,-5.270996 -19.25,-6.610016l-22.549988,-34.5c4.498993,-0.309998 8.699005,-1.720001 12.32901,-3.949982z" fill="#7f7f7f"/>
      <path id="svg_69" d="m289.089996,375.600006c0.01001,2.760986 -2.220001,5.010986 -4.979004,5.020996c-2.760986,0.019989 -5.010986,-2.209991 -5.020996,-4.970001c-0.01001,-2.760986 2.220001,-5.010986 4.980011,-5.029999c2.759979,-0.011017 5.009979,2.218994 5.019989,4.979004z" fill="#414042"/>
      <path id="svg_70" d="m287.75,333.290009c0.040009,8.039978 -6.459991,14.589996 -14.5,14.619995c-8.040009,0.040009 -14.589996,-6.450012 -14.630005,-14.48999c-0.029999,-8.040009 6.459991,-14.590027 14.5,-14.630005s14.589996,6.449982 14.630005,14.5zm-14.519989,9.619995c5.129974,-0.020996 9.269989,-4.200012 9.25,-9.330017c-0.029999,-5.129974 -4.200012,-9.270996 -9.330017,-9.25c-5.140991,0.029999 -9.279999,4.210022 -9.25,9.340027c0.02002,5.129974 4.200012,9.269989 9.330017,9.23999z" fill="#414042"/>
      <path id="svg_71" d="m282.480011,333.579987c0.019989,5.130005 -4.120026,9.310028 -9.25,9.330017c-5.130005,0.029999 -9.311005,-4.110016 -9.331024,-9.23999c-0.029999,-5.130005 4.110016,-9.310028 9.25,-9.340027c5.131012,-0.019989 9.301025,4.120026 9.331024,9.25z" fill="#6D6E71"/>
      <path id="svg_72" d="m243.869995,169.649994l35.220001,54.680008l-3.880005,18.789993c-1.799988,-5.509995 -5.309998,-10.23999 -9.899994,-13.569992l0.209991,-0.290009l-26.779984,-40.839996l2.809998,-3.479996c2.779999,-3 2.809998,-8.570007 1.389999,-15.080002l0.929993,-0.210007z" fill="#7f7f7f"/>
      <path id="svg_73" d="m251.179993,278.929993c-0.639999,0.050018 -1.279999,0.070007 -1.929993,0.070007c-6.360001,0 -12.210007,-2.170013 -16.850006,-5.820007c-4.309998,-3.369995 -7.589996,-8.029999 -9.25,-13.380005c-0.799988,-2.569977 -1.229996,-5.299988 -1.229996,-8.12999c0,-9.139999 4.479996,-17.229996 11.369995,-22.190002c0.100006,-0.080002 0.210007,-0.149994 0.320007,-0.220001c3.800003,-2.669998 8.309998,-4.389999 13.190002,-4.819992c0.800003,-0.070007 1.619995,-0.110001 2.449997,-0.110001c6,0 11.549988,1.929993 16.059998,5.220001c4.589996,3.330002 8.100006,8.059998 9.899994,13.569992c0.890015,2.690002 1.369995,5.559998 1.369995,8.550003c0,9.87001 -5.22998,18.520004 -13.069977,23.310013c-3.630005,2.22998 -7.830017,3.639984 -12.330017,3.949982zm6.720001,-26.899994c0,-4.919998 -3.98999,-8.910004 -8.909988,-8.910004c-4.919998,0 -8.900009,3.990005 -8.900009,8.910004c0,4.920013 3.980011,8.910004 8.900009,8.910004c4.919998,0 8.909988,-3.98999 8.909988,-8.910004z" fill="#58595B"/>
      <path fill-opacity="0" id="svg_74" d="m251.179993,278.929993l22.550018,34.5c-6.141022,-1.358978 -11.460022,-1.488983 -14.621002,0.630005l-26.709015,-40.880005c4.639999,3.649994 10.490005,5.820007 16.850006,5.820007c0.649994,0 1.289993,-0.019989 1.929993,-0.070007z" fill="#000000"/>
      <path stroke-opacity="0" stroke="#000000" id="svg_75" d="m238.740005,188.419998l26.779984,40.839996l-0.209991,0.290009c-4.51001,-3.290009 -10.059998,-5.220001 -16.059998,-5.220001c-0.830002,0 -1.649994,0.039993 -2.449997,0.110001l-22.449997,-34.330002c6.309998,1.270004 11.619995,1.110001 14.389999,-1.690002z" fill="#000000" fill-opacity="0"/>
      <path id="svg_76" d="m232.399994,273.179993l26.709991,40.878998c-0.379974,0.25 -0.72998,0.540009 -1.039978,0.860016l-2.790009,3.48999c-2.789993,3.040009 -2.770004,8.679993 -1.279999,15.26001l-34.710007,-55.170013l3.860001,-18.699982c1.660004,5.350983 4.940002,10.010986 9.25,13.380981z" fill="#7f7f7f"/>
      <path id="svg_77" d="m248.990005,243.119995c4.919998,0 8.909988,3.990005 8.909988,8.910004c0,4.920013 -3.98999,8.910004 -8.909988,8.910004c-4.919998,0 -8.900009,-3.98999 -8.900009,-8.910004c0,-4.919998 3.980011,-8.910004 8.900009,-8.910004zm4.860001,10.660004l-0.470001,-5.039993l-4.600006,-2.110001l-4.130005,2.929993l0.470001,5.040009l4.600006,2.109985l4.130005,-2.929993z" fill="#6D6E71"/>
      <polygon id="svg_78" points="253.3800048828125,248.74000549316406 253.85000610351562,253.77999877929688 249.72000122070312,256.7099914550781 245.1199951171875,254.60000610351562 244.64999389648438,249.55999755859375 248.77999877929688,246.6300048828125 " fill="#414042"/>
      <path id="svg_79" d="m224.350006,190.110001l22.449997,34.330002c-4.880005,0.429993 -9.389999,2.149994 -13.190002,4.819992l-30.339996,-46.37999c6.949997,3.049988 14.550003,5.909988 21.080002,7.229996z" fill="#7f7f7f"/>
      <path id="svg_80" d="m241.550003,184.940002l-2.809998,3.479996c-2.770004,2.800003 -8.080002,2.960007 -14.389999,1.690002c-6.529999,-1.320007 -14.130005,-4.180008 -21.080002,-7.229996c-9.160004,-4.029999 -17.180008,-8.400009 -20.110001,-10.040009l41.769989,-44.550003c0,0 14.210007,24.170013 18.01001,41.570007c1.419998,6.509995 1.389999,12.080002 -1.389999,15.080002zm-3.270004,-15.020004c0,-8.039993 -6.520004,-14.559998 -14.559998,-14.559998c-8.050003,0 -14.570007,6.520004 -14.570007,14.559998s6.520004,14.559998 14.570007,14.559998c8.039993,0 14.559998,-6.519989 14.559998,-14.559998z" fill="#000000"/>
      <path id="svg_81" d="m223.720001,155.360001c8.039993,0 14.559998,6.520004 14.559998,14.559998s-6.520004,14.559998 -14.559998,14.559998c-8.050003,0 -14.570007,-6.519989 -14.570007,-14.559998s6.520004,-14.559998 14.570007,-14.559998zm9.289993,14.289993c0,-5.12999 -4.159988,-9.289993 -9.289993,-9.289993c-5.139999,0 -9.290009,4.160004 -9.290009,9.289993s4.150009,9.290009 9.290009,9.290009c5.130005,0 9.289993,-4.160004 9.289993,-9.290009z" fill="#414042"/>
      <path id="svg_82" d="m223.720001,160.360001c5.130005,0 9.289993,4.160004 9.289993,9.289993s-4.159988,9.290009 -9.289993,9.290009c-5.139999,0 -9.290009,-4.160004 -9.290009,-9.290009s4.150009,-9.289993 9.290009,-9.289993z" fill="#6D6E71"/>
      <path id="svg_83" d="m183.160004,172.839996l-0.040009,0.040009c0,0 -4.369995,-2.26001 -11.119995,-6.130005c-5.279999,-3.029999 -6.960007,-11.410004 -9.839996,-23.369995c-0.800003,-3.330002 -1.690002,-6.940002 -2.779999,-10.779999c-3.980011,-14.020004 1.049988,-20.030006 3.279999,-21.910004c0.019989,-0.020004 0.039993,-0.040001 0.069992,-0.060005c2.919998,-2.689995 9.300003,-5.82 20.480011,-3.419998c3.179993,0.68 6.199997,1.239998 9.029999,1.739998c13.12999,2.32 22.319992,3.310005 25.860001,8.639999c4.299988,6.490005 6.829987,10.699997 6.829987,10.699997l-41.769989,44.550003zm34.839996,-45.239998c0,-2.760002 -2.240005,-5 -5,-5s-5,2.239998 -5,5c0,2.760002 2.240005,5.000008 5,5.000008s5,-2.240005 5,-5.000008zm-34.880005,34.32c0,-2.759995 -2.23999,-5 -5,-5c-2.769989,0 -5,2.240005 -5,5c0,2.759995 2.230011,5 5,5c2.76001,0 5,-2.240005 5,-5zm-2.049988,-39.32c0,-2.760002 -2.240005,-5 -5,-5c-2.76001,0 -5,2.239998 -5,5c0,2.760002 2.23999,5 5,5c2.759995,0 5,-2.239998 5,-5z" fill="#6D6E71"/>
      <circle id="svg_84" r="5" cy="127.6" cx="213" fill="#414042"/>
      <path id="svg_85" d="m199.5,185.119995c4.169998,15.460007 -11.169998,26.050003 -11.169998,26.050003s-27.160004,-12 -43,-18.669998c-2.660004,-18.830002 13.5,-27.669998 13.5,-27.669998s25.5,12.339996 40.669998,20.289993zm-16.509995,3.76001c0,-5.180008 -4.190002,-9.37001 -9.360001,-9.37001c-5.180008,0 -9.37001,4.190002 -9.37001,9.37001c0,5.169998 4.190002,9.360001 9.37001,9.360001c5.169998,0 9.360001,-4.190002 9.360001,-9.360001z" fill="#E6E7E8"/>
      <path id="svg_86" d="m192.240005,108.949997c-2.830002,-0.5 -5.850006,-1.059998 -9.029999,-1.739998c-11.180008,-2.400002 -17.560013,0.730003 -20.480011,3.419998c-0.029999,0.020004 -0.050003,0.040001 -0.069992,0.060005c-2.230011,1.879997 -7.26001,7.889999 -3.279999,21.910004c1.089996,3.839996 1.979996,7.449997 2.779999,10.779999c-7.460007,-3.930008 -12.540009,-11.76001 -12.540009,-20.780006c0,-12.979996 10.520004,-23.5 23.5,-23.5c7.880005,0 14.860001,3.880005 19.12001,9.849998z" fill="#D1D3D4"/>
      <path id="svg_87" d="m178.119995,156.919998c2.76001,0 5,2.240005 5,5c0,2.759995 -2.23999,5 -5,5c-2.769989,0 -5,-2.240005 -5,-5c0,-2.759995 2.230011,-5 5,-5z" fill="#414042"/>
      <path id="svg_88" d="m173.630005,179.509995c5.169998,0 9.360001,4.190002 9.360001,9.37001c0,5.169998 -4.190002,9.360001 -9.360001,9.360001c-5.180008,0 -9.37001,-4.190002 -9.37001,-9.360001c0,-5.180008 4.190002,-9.37001 9.37001,-9.37001zm4.659988,9.37001c0,-2.580002 -2.089996,-4.669998 -4.659988,-4.669998c-2.580002,0 -4.669998,2.089996 -4.669998,4.669998c0,2.569992 2.089996,4.659988 4.669998,4.659988c2.569992,0 4.659988,-2.089996 4.659988,-4.659988z" fill="#6D6E71"/>
      <circle id="svg_89" r="5" cy="122.6" cx="176.07" fill="#414042"/>
      <path id="svg_90" d="m173.630005,184.210007c2.569992,0 4.659988,2.089996 4.659988,4.669998c0,2.569992 -2.089996,4.659988 -4.659988,4.659988c-2.580002,0 -4.669998,-2.089996 -4.669998,-4.659988c0,-2.580002 2.089996,-4.669998 4.669998,-4.669998z" fill="#414042"/>
     </g>
     <g id="svg_91">
      <path id="svg_101" d="m241.380005,185.119995c0.059998,-0.059998 0.110001,-0.119995 0.169998,-0.179993c2.779999,-3 2.809998,-8.570007 1.389999,-15.080002c-3.800003,-17.399994 -18.01001,-41.570007 -18.01001,-41.570007" stroke-miterlimit="10" stroke="#000000" fill="#000000"/>
      <path id="svg_108" d="m314.920013,330.910004c0,0 -0.420013,-0.23999 -1.189026,-0.660004c-3,-1.670013 -11.329987,-6.149994 -20.75,-10.209991c-6.350983,-2.730011 -13.199982,-5.270996 -19.25,-6.610016c-6.140991,-1.358978 -11.459991,-1.488983 -14.621002,0.630005c-0.379974,0.25 -0.72998,0.540009 -1.039978,0.860016l-2.790009,3.48999" stroke-miterlimit="10" stroke="#000000" fill="#000000"/>
      <path id="svg_114" d="m255.449997,318.230011c-0.059998,0.059998 -0.110001,0.118988 -0.169998,0.179993c-2.789993,3.040009 -2.770004,8.679993 -1.279999,15.26001c3.929993,17.369995 18.160004,41.319977 18.160004,41.319977" stroke-miterlimit="10" stroke="#000000" fill="#000000"/>
      <path id="svg_111" d="m334.859985,359.619995c7.479004,3.890015 12.590027,11.700012 12.630005,20.720001c0.059998,12.980011 -10.410004,23.550018 -23.390991,23.601013c-7.880005,0.039978 -14.880005,-3.811005 -19.158997,-9.761017" stroke-miterlimit="10" stroke="#000000" fill="#7f7f7f"/>
      <path id="svg_113" d="m333.549988,393c0,0 0.360016,-0.190002 0.891022,-0.630005c0.028992,-0.020996 0.049988,-0.040009 0.069,-0.061005c2.220978,-1.889984 7.220978,-7.929993 3.181,-21.929993c-1.110016,-3.829987 -2.011017,-7.438995 -2.830017,-10.76001c-2.931,-11.949982 -4.649994,-20.319977 -9.940002,-23.329987c-6.769989,-3.839996 -11.149994,-6.079987 -11.149994,-6.079987l-0.039001,0.039978l-41.570007,44.740021c0,0 2.550018,4.199982 6.880005,10.669983c3.559998,5.309998 12.76001,6.26001 25.899994,8.519989c2.82901,0.490021 5.850006,1.030029 9.029022,1.700012c11.190002,2.351013 17.561005,-0.809998 20.470978,-3.51001" stroke-miterlimit="10" stroke="#000000" fill="#000000"/>
      <path id="svg_122" d="m265.309998,229.550003c4.670013,3.453003 8.100006,8.059998 9.899994,13.569992c0.890015,2.690002 1.369995,5.559998 1.369995,8.550003c0,9.87001 -5.22998,18.520004 -13.069977,23.310013c-3.630005,2.22998 -7.830017,3.639984 -12.330017,3.949982c-0.639999,0.050018 -1.279999,0.070007 -1.929993,0.070007c-6.360001,0 -12.210007,-2.170013 -16.850006,-5.820007c-4.309998,-3.369995 -7.589996,-8.029999 -9.25,-13.380005c-0.799988,-2.569977 -1.229996,-5.299988 -1.229996,-8.12999c0,-9.139999 4.479996,-17.229996 11.369995,-22.190002c0.100006,-0.080002 0.210007,-0.149994 0.320007,-0.220001c3.800003,-2.669998 6.020004,-4.522995 13.190002,-4.819992c7.169998,-0.296997 13.840012,1.656998 18.509995,5.110001z" stroke-miterlimit="10" stroke="#000000" fill="#000000"/>
      <path id="svg_95" d="m181.970001,172.169998c0,0 0.419998,0.240005 1.190002,0.669998c2.929993,1.639999 10.949997,6.01001 20.110001,10.040009c6.949997,3.049988 14.550003,5.909988 21.080002,7.229996c6.309998,1.270004 11.619995,1.110001 14.389999,-1.690002l2.809998,-3.479996" stroke-miterlimit="10" stroke="#000000" fill="#000000"/>
      <path id="svg_98" d="m162.160004,143.380005c-7.460007,-3.930008 -12.540009,-11.76001 -12.540009,-20.780006c0,-12.979996 10.520004,-23.5 23.5,-23.5c7.880005,0 14.860001,3.880005 19.12001,9.849998" stroke-miterlimit="10" stroke="#000000" fill="#7f7f7f"/>
      <path id="svg_100" d="m163.619995,110c0,0 -0.360001,0.190002 -0.889999,0.629997c-0.029999,0.020004 -0.050003,0.040001 -0.069992,0.060005c-2.230011,1.879997 -7.26001,7.889999 -3.279999,21.910004c1.089996,3.839996 1.979996,7.449997 2.779999,10.779999c2.87999,11.959991 4.559998,20.339996 9.839996,23.369995c6.75,3.869995 11.119995,6.130005 11.119995,6.130005l0.040009,-0.040009l41.769989,-44.550003c0,0 -2.529999,-4.209991 -6.829987,-10.699997c-3.540009,-5.329994 -12.730011,-6.32 -25.860001,-8.639999c-2.830002,-0.5 -5.850006,-1.059998 -9.029999,-1.739998c-11.180008,-2.400002 -17.560013,0.730003 -20.480011,3.419998" stroke-miterlimit="10" stroke="#000000" fill="#000000"/>
      <path id="svg_92" d="m183.119995,161.919998c0,2.759995 -2.23999,5 -5,5c-2.769989,0 -5,-2.240005 -5,-5c0,-2.759995 2.230011,-5 5,-5c2.76001,0 5,2.240005 5,5z" stroke-miterlimit="10" stroke="#000000" fill="#7f7f7f"/>
      <path id="svg_93" d="m238.279999,169.919998c0,8.040009 -6.520004,14.559998 -14.559998,14.559998c-8.050003,0 -14.570007,-6.519989 -14.570007,-14.559998s6.520004,-14.559998 14.570007,-14.559998c8.039993,0 14.559998,6.520004 14.559998,14.559998z" stroke-miterlimit="10" stroke="#000000" fill="#7f7f7f"/>
      <path id="svg_94" d="m233.009995,169.649994c0,5.130005 -4.159988,9.290009 -9.289993,9.290009c-5.139999,0 -9.290009,-4.160004 -9.290009,-9.290009s4.150009,-9.289993 9.290009,-9.289993c5.130005,0 9.289993,4.160004 9.289993,9.289993z" stroke-miterlimit="10" stroke="#000000" fill="#000000"/>
      <circle id="svg_96" r="5" cy="127.6" cx="213" stroke-miterlimit="10" stroke="#000000" fill="#7f7f7f"/>
      <circle id="svg_97" r="5" cy="122.6" cx="176.07" stroke-miterlimit="10" stroke="#000000" fill="#7f7f7f"/>
      <path id="svg_99" d="m162.660004,110.690002c-0.910004,0.849998 -1.480011,1.659996 -1.730011,2.220001" stroke-miterlimit="10" stroke="#000000" fill="none"/>
      <path id="svg_102" d="m158.830002,164.830002c0,0 -16.160004,8.839996 -13.5,27.669998c15.839996,6.669998 43,18.669998 43,18.669998s15.339996,-10.589996 11.169998,-26.050003c-15.169998,-7.949997 -40.669998,-20.289993 -40.669998,-20.289993z" stroke-miterlimit="10" stroke="#000000" fill="#7f7f7f"/>
      <path id="svg_103" d="m182.990005,188.880005c0,5.169998 -4.190002,9.360001 -9.360001,9.360001c-5.180008,0 -9.37001,-4.190002 -9.37001,-9.360001c0,-5.180008 4.190002,-9.37001 9.37001,-9.37001c5.169998,0 9.360001,4.190002 9.360001,9.37001z" stroke-miterlimit="10" stroke="#000000" fill="#000000"/>
      <path id="svg_104" d="m178.289993,188.880005c0,2.569992 -2.089996,4.659988 -4.659988,4.659988c-2.580002,0 -4.669998,-2.089996 -4.669998,-4.659988c0,-2.580002 2.089996,-4.669998 4.669998,-4.669998c2.569992,0 4.659988,2.089996 4.659988,4.669998z" stroke-miterlimit="10" stroke="#000000" fill="#7f7f7f"/>
      <path id="svg_105" d="m313.820007,341.170013c-0.011017,-2.76001 2.220001,-5.01001 4.979004,-5.02002c2.759979,-0.020996 5.009979,2.209991 5.020996,4.970001c0.009979,2.77002 -2.221008,5.01001 -4.980011,5.029999c-2.76001,0.01001 -5.01001,-2.220001 -5.019989,-4.97998z" stroke-miterlimit="10" stroke="#000000" fill="#7f7f7f"/>
      <path id="svg_106" d="m258.619995,333.420013c-0.029999,-8.040009 6.459991,-14.590027 14.5,-14.630005s14.589996,6.449982 14.630005,14.5c0.040009,8.039978 -6.459991,14.589996 -14.5,14.619995c-8.040009,0.040009 -14.589996,-6.450012 -14.630005,-14.48999z" stroke-miterlimit="10" stroke="#000000" fill="#7f7f7f"/>
      <path id="svg_107" d="m263.899994,333.670013c-0.029999,-5.130005 4.110016,-9.310028 9.25,-9.340027c5.130005,-0.020996 9.300018,4.120026 9.330017,9.25c0.019989,5.130005 -4.120026,9.310028 -9.25,9.330017c-5.130005,0.029999 -9.309998,-4.110016 -9.330017,-9.23999z" stroke-miterlimit="10" stroke="#000000" fill="#000000"/>
      <path id="svg_109" d="m279.089996,375.649994c-0.01001,-2.760986 2.220001,-5.010986 4.980011,-5.029999c2.759979,-0.01001 5.009979,2.220001 5.019989,4.979004c0.01001,2.760986 -2.220001,5.010986 -4.979004,5.020996c-2.760986,0.02002 -5.010986,-2.209991 -5.020996,-4.970001z" stroke-miterlimit="10" stroke="#000000" fill="#7f7f7f"/>
      <path id="svg_110" d="m316.040009,380.480011c-0.01001,-2.761017 2.220001,-5.011017 4.979004,-5.020996c2.760986,-0.02002 5.010986,2.209991 5.020996,4.969971c0.019989,2.771027 -2.210022,5.011017 -4.970001,5.030029c-2.76001,0.010986 -5.01001,-2.219025 -5.029999,-4.979004z" stroke-miterlimit="10" stroke="#000000" fill="#7f7f7f"/>
      <path id="svg_112" d="m334.51001,392.309998c0.899994,-0.859009 1.470978,-1.669983 1.720978,-2.229004" stroke-miterlimit="10" stroke="#000000" fill="none"/>
      <path id="svg_115" d="m338.089996,338.149994c0,0 16.130005,-8.910004 13.380005,-27.72998c-15.869995,-6.600006 -43.089996,-18.470001 -43.089996,-18.470001s-15.279999,10.649994 -11.050018,26.089996c15.210022,7.889984 40.76001,20.109985 40.76001,20.109985z" stroke-miterlimit="10" stroke="#000000" fill="#7f7f7f"/>
      <path id="svg_116" d="m313.820007,314.209991c-0.020996,-5.169983 4.148987,-9.380005 9.329987,-9.399994c5.170013,-0.029999 9.380005,4.149994 9.408997,9.320007c0.020996,5.169983 -4.158997,9.380005 -9.328979,9.410004c-5.170013,0.019989 -9.380005,-4.149994 -9.410004,-9.330017z" stroke-miterlimit="10" stroke="#000000" fill="#000000"/>
      <path id="svg_117" d="m318.519989,314.190002c-0.009979,-2.570007 2.070007,-4.67099 4.650024,-4.681c2.579987,-0.019989 4.669983,2.061005 4.689972,4.640991c0.01001,2.580017 -2.069977,4.679993 -4.649994,4.688995s-4.679993,-2.069 -4.690002,-4.648987z" stroke-miterlimit="10" stroke="#000000" fill="#7f7f7f"/>
      <path id="svg_118" d="m257.899994,252.029999c0,4.920013 -3.98999,8.910004 -8.909988,8.910004c-4.919998,0 -8.900009,-3.98999 -8.900009,-8.910004c0,-4.919998 3.980011,-8.910004 8.900009,-8.910004c4.919998,0 8.909988,3.990005 8.909988,8.910004z" stroke-miterlimit="10" stroke="#000000" fill="#7f7f7f"/>
      <polygon id="svg_119" points="253.85000610351562,253.77999877929688 249.72000122070312,256.7099914550781 245.1199951171875,254.60000610351562 244.64999389648438,249.55999755859375 248.77999877929688,246.6300048828125 253.3800048828125,248.74000549316406 " stroke-miterlimit="10" stroke="#000000" fill="#000000"/>
      <polyline id="svg_120" points="243.8699951171875,169.64999389648438 279.0899963378906,224.3300018310547 275.2099914550781,243.1199951171875 " stroke-miterlimit="10" stroke="#800000018000000180000001" fill="none"/>
      <polyline id="svg_121" points="254,333.6700134277344 219.2899932861328,278.5 223.14999389648438,259.79998779296875 223.1699981689453,259.7099914550781 " stroke-miterlimit="10" stroke="#800000018000000180000001" fill="none"/>
      <path id="svg_123" d="m246.800003,224.440002c0.800003,-0.070007 1.619995,-0.110001 2.449997,-0.110001c6,0 11.549988,1.929993 16.059998,5.220001" stroke-miterlimit="10" stroke="#800000018000000180000001" fill="none"/>
      <polyline id="svg_124" points="263.510009765625,274.9800109863281 292.9800109863281,320.0400085449219 293.1700134277344,320.3299865722656 " stroke-miterlimit="10" stroke="#800000018000000180000001" fill="none"/>
      <polyline id="svg_125" points="232.39999389648438,273.17999267578125 259.1099853515625,314.05999755859375 259.1700134277344,314.1600036621094 " stroke-miterlimit="10" stroke="#800000018000000180000001" fill="none"/>
      <polyline id="svg_126" points="251.1699981689453,278.9200134277344 251.17999267578125,278.92999267578125 273.7300109863281,313.42999267578125 273.739990234375,313.44000244140625 " stroke-miterlimit="10" stroke="#800000018000000180000001" fill="none"/>
      <polyline id="svg_127" points="203.25999450683594,182.86000061035156 203.27000427246094,182.8800048828125 233.61000061035156,229.25999450683594 " stroke-miterlimit="10" stroke="#800000018000000180000001" fill="none"/>
      <line id="svg_128" y2="224.44" x2="246.8" y1="190.11" x1="224.35" stroke-miterlimit="10" stroke="#800000018000000180000001" fill="none"/>
      <line id="svg_129" y2="229.26" x2="265.52" y1="188.42" x1="238.74" stroke-miterlimit="10" stroke="#800000018000000180000001" fill="none"/>
     </g>
    </g>
   </g>
   <path id="svg_130" d="m447,114" stroke-miterlimit="10" stroke="#800000018000000180000001" fill="none"/>
   <path id="svg_131" d="m219.289993,278.5" stroke-miterlimit="10" stroke="#000000" fill="#E6E7E8"/>
   <path id="svg_132" d="m257.575989,396.703003" stroke-miterlimit="10" stroke="#000000"/>
  </g>
 </g>
</svg>